<svg xmlns="http://www.w3.org/2000/svg" id="Calque_2" viewBox="0.0 0.0 450.35 740.08" width="246.73853544825266" height="405.2873209218369"><defs><style>.cls-1{fill:#0067b2;}.cls-2{fill:#fff;}.cls-3{fill:#1d1d1b;}</style></defs><g id="Calque_6"><path class="cls-2" d="m225.18,0c124.34,0,225.18,165.68,225.18,370.04s-100.84,370.04-225.18,370.04S0,574.39,0,370.04,100.84,0,225.18,0"/><path class="cls-2" d="m63.95,579.75c37.18,81.8,95.78,134.45,161.22,134.45,112.14,0,203.46-154.68,203.46-344.46,0-74.66-14.28-143.97-38.07-200.49l-3.87-8.63C349.22,78.53,290.91,25.58,225.18,25.58,113.03,25.58,21.71,180.26,21.71,370.04c0,74.96,14.28,144.57,38.37,201.08,0,0,3.87,8.63,3.87,8.63Z"/><path class="cls-1" d="m225.18,25.58c65.74,0,124.04,52.95,161.52,135.05L60.38,571.12c-24.09-56.52-38.37-126.12-38.37-201.08C21.71,180.26,113.03,25.58,225.18,25.58"/><path class="cls-3" d="m390.27,169.55c24.09,56.52,38.07,125.83,38.07,200.49,0,189.78-91.32,344.46-203.46,344.46-65.44,0-123.74-52.65-161.22-134.45L390.27,169.55Z"/><path class="cls-2" d="m107.09,174.61l10.11,8.33,5.35-3.57-35.7-27.96-5.35,3.57,9.82,45.51,5.06-3.27-2.97-13.09,13.68-9.52Zm-15.47,4.16l-4.46-19.93,15.47,12.49-11.01,7.44Zm8.03-37.48l31.23-14.87,2.08,4.76-13.09,5.95,15.77,34.8-5.06,2.68-15.77-34.8-13.09,6.25-2.08-4.76Z"/><path class="cls-2" d="m169.25,146.35l7.44,11.01,5.95-1.78-26.18-37.48-6.25,1.78-3.87,46.11,5.65-1.78.89-13.39s16.36-4.46,16.36-4.46Zm-16.06-.89l1.49-20.23,11.01,16.66-12.49,3.57Z"/><path class="cls-2" d="m193.35,147.54l21.12-2.68.59,5.35-26.77,3.27-5.06-43.13,5.65-.59,4.46,37.78Z"/><path class="cls-2" d="m248.38,139.81l2.97,13.09,6.25.59-11.3-44.62-6.54-.59-19.63,41.94,5.95.59,5.65-12.2s16.66,1.19,16.66,1.19Zm-14.87-6.84l8.33-18.44,4.46,19.63s-12.79-1.19-12.79-1.19Z"/><path class="cls-2" d="m302.22,119.88l5.35,1.49-12.2,41.64-5.95-1.78-11.01-39.86-9.82,33.61-5.35-1.78,12.2-41.64,6.54,2.08,10.41,39.86,9.82-33.61Z"/><path class="cls-2" d="m314.71,123.74l31.23,14.87-2.38,4.76-12.79-6.25-15.77,34.8-5.06-2.38,15.47-34.8-12.79-6.25,2.08-4.76Z"/><path class="cls-2" d="m351.3,179.96l-3.27,12.79,5.06,3.57,10.71-44.92-5.35-3.87-36.59,27.37,4.76,3.27,10.41-8.03s14.28,9.82,14.28,9.82Zm-9.82-13.09l16.06-11.9-5.06,19.33s-11.01-7.44-11.01-7.44Z"/><path class="cls-2" d="m154.39,636.57l-6.84-2.08,11.3-36.88-11.9-3.87,1.49-5.06c8.33,2.08,11.9,2.38,16.66-5.35l5.06,1.49-15.77,51.76Zm42.83-7.14c4.76.59,10.41-1.19,12.79-5.06v.3c-3.27,13.68-7.73,19.63-14.87,18.44-5.35-.59-8.03-4.46-7.73-9.82l-6.54-.89c-.59,5.35,1.49,14.87,13.98,16.36,18.14,2.38,22.01-22.31,22.61-27.96.89-8.63,1.19-25.28-15.47-27.37-11.01-1.49-17.85,6.54-19.04,16.36-1.49,10.71,4.46,18.15,14.28,19.63m1.49-5.95c-4.46-.59-10.41-2.68-9.22-13.09.89-7.14,5.35-11.6,11.6-10.71,7.44.89,9.82,6.84,9.22,12.79-1.19,10.41-8.03,11.3-11.6,11.01"/><path class="cls-2" d="m270.69,621.99c-.59-11.3-4.46-27.66-19.63-26.77s-16.96,17.85-16.36,28.85c.59,11.3,4.46,27.66,19.63,26.77,14.87-.89,16.96-17.55,16.36-28.85m-7.14.3c.89,13.68-2.08,22.01-9.82,22.31-7.44.59-11.6-7.44-12.2-21.12-.89-13.68,2.08-22.01,9.82-22.31,7.44-.3,11.3,7.73,12.2,21.12m15.47-30.34l35.1-10.41,1.49,5.65c-3.57,6.84-11.01,27.07-8.33,51.46l-7.14,2.08c-2.38-14.87,1.78-36.29,8.33-50.87l-27.96,8.33-1.49-6.25h0Z"/><path class="cls-2" d="m225.69,175.24c-109.63,0-198.53,88.87-198.53,198.5s88.9,198.53,198.53,198.53c67.58,0,127.28-33.76,163.11-85.35,22.33-32.1,35.39-71.1,35.39-113.19,0-109.63-88.87-198.5-198.5-198.5Zm0,377.52c-98.85,0-179.02-80.14-179.02-179.02s80.17-178.99,179.02-178.99c61.69,0,116.06,31.18,148.25,78.66-1.87.8-3.7,1.57-5.54,2.31-9.06,3.7-18.01,6.6-28.13,5.39-17.47-1.78-37.02-10.36-55.38-19.25-40.28-19.55-84.99-36.13-114.61-8.29-2.67,2.37-6.52,7.11-8.59,11.25-1.48,3.26-1.48,7.7-3.55,11.85-3.85,7.4-12.73,12.73-18.36,20.14-2.96,3.85-5.63,7.7-8,12.14-3.26,6.52-5.92,16.29-9.77,22.21-3.55,5.63-10.66,12.44-16.29,17.77-4.74,4.44-15.1,10.96-16.29,17.77-1.48,8,8.59,10.96,8.29,17.47,0,5.03-5.92,9.18-6.81,13.03-.89,5.03,1.18,5.63,3.85,10.96-.59,2.96-4.15,1.48-4.15,5.33.89,4.74,4.15,6.52,3.85,13.03-.3,7.11-5.03,13.03-4.74,18.66,1.18,14.81,36.72,16.58,54.49,22.51,24.28,8,37.31,26.36,49.75,42.64,3.26,4.44,8,10.07,11.85,15.7,1.75,2.64,7.82,13.3,13.09,20.7,2.13.09,4.29.15,6.46.15h.33c44.95,0,85.88-17.12,116.65-45.22.12-.09.24-.21.36-.3,4.95-4.56,9.59-9.36,13.98-14.42h7.67c-32.84,40.19-82.74,65.83-138.65,65.83Z"/><path class="cls-3" d="m406.59,382.04c0,.59-1.18,2.67-2.07,3.85-18.95,24.28-51.23,33.17-85.58,27.24-37.61-6.52-69-32.58-112.24-41.16-2.67-1.18,2.07-2.67,2.96-2.96,4.44-1.48,14.51-.3,20.43.89,33.46,5.92,64.85,24.28,97.73,28.13,31.39,3.85,53.6-6.22,77-16.29.89-.59,1.48-.3,1.78.3"/><path class="cls-3" d="m402.74,347.69c.3.3,0,.89-.3,1.48-35.01,74.02-151.5-.25-206.11-9.77-7.98-1.39,21.87-13.47,56.56,0,21.03,6.52,44.72,17.18,65.45,22.51,34.94,8.88,60.41-1.48,84.1-13.92q0-.3.3-.3"/><path class="cls-3" d="m395.63,317.48c.59.59,0,1.18,0,1.18-14.21,21.62-44.42,30.21-74.63,24.88-11.25-2.07-22.8-6.81-34.65-11.25-31.39-11.85-68.7-28.13-101.87-22.8-1.18-.89,1.78-3.26,2.37-3.55,10.36-8.59,29.61-12.44,46.79-9.77,33.17,5.33,57.81,24.46,90.39,30.09,25.76,4.15,50.28-1.07,69.53-8.47.3-.3,1.78-.59,2.07-.3"/><path class="cls-3" d="m385.86,291.72c0,.59-.89,1.48-.89,1.48-16.88,16.88-41.46,23.69-69.89,16.88-27.54-6.52-50.64-25.76-78.77-32.87-20.73-5.33-39.68-4.15-59.52-2.67,2.07-5.63,8.88-10.66,14.51-13.33,28.13-13.03,62.78,2.37,92.1,16.88,13.33,6.81,27.54,14.51,40.87,17.77,23.99,5.92,41.16-1.18,60.71-5.03-.3.3.59.59.89.89m5.63,156.96c-18.06,31.69-78.18,36.72-116.98,10.07-7.11-4.74-13.69-9.97-17.54-16.78-.25-.45-.67-1.36,1.14-.42,17.47,5.92,30.6,12.56,48.96,17,32.28,8,61.6,1.68,82.63-11.05,0,0,1.18-.59,1.78-.3.3.3,0,1.48,0,1.48"/><path class="cls-3" d="m402.44,413.73c-30.5,47.97-129.87,32.26-173.99-7.72,0,0-2.38-2.02-.43-2.65.86-.28,2.67.59,2.67.59,30.8,10.66,65.15,20.73,95.36,23.4,30.8,2.96,55.97-3.85,76.11-15.99,0,0,.89-.59,1.18-.3s-.3,1.18-.89,2.67"/></g></svg>