<?xml version="1.0" encoding="UTF-8" standalone="no"?>
<!-- Created with Inkscape (http://www.inkscape.org/) -->

<svg
   width="105.66539mm"
   height="119.01586mm"
   viewBox="0 0 105.66539 119.01586"
   version="1.1"
   id="svg1481"
   xmlns:inkscape="http://www.inkscape.org/namespaces/inkscape"
   xmlns:sodipodi="http://sodipodi.sourceforge.net/DTD/sodipodi-0.dtd"
   xmlns="http://www.w3.org/2000/svg"
   xmlns:svg="http://www.w3.org/2000/svg">
  <sodipodi:namedview
     id="namedview1483"
     pagecolor="#ffffff"
     bordercolor="#000000"
     borderopacity="0.25"
     inkscape:showpageshadow="2"
     inkscape:pageopacity="0.0"
     inkscape:pagecheckerboard="0"
     inkscape:deskcolor="#d1d1d1"
     inkscape:document-units="mm"
     showgrid="false" />
  <defs
     id="defs1478">
    <clipPath
       clipPathUnits="userSpaceOnUse"
       id="clipPath423">
      <path
         d="m 26.456,758.835 h 79.37 v 71.717 h -79.37 z"
         id="path421" />
    </clipPath>
    <clipPath
       clipPathUnits="userSpaceOnUse"
       id="clipPath513">
      <path
         d="m 36,763.684 h 55.842 v 62.898 H 36 Z"
         id="path511" />
    </clipPath>
    <clipPath
       clipPathUnits="userSpaceOnUse"
       id="clipPath537">
      <path
         d="m 26.456,758.835 h 79.37 v 71.717 h -79.37 z"
         id="path535" />
    </clipPath>
  </defs>
  <g
     inkscape:label="Layer 1"
     inkscape:groupmode="layer"
     id="layer1"
     transform="translate(-79.399736,-56.994543)">
    <g
       id="g417"
       transform="matrix(1.8922104,0,0,-1.8922104,11.279978,1621.0616)">
      <g
         id="g419"
         clip-path="url(#clipPath423)">
        <g
           id="g425"
           transform="translate(46.343,800.6136)">
          <path
             d="M 0,0 C -0.012,9.791 7.914,17.737 17.705,17.749 27.496,17.761 35.442,9.834 35.454,0.043 35.466,-9.747 27.538,-17.693 17.748,-17.705 7.957,-17.717 0.012,-9.79 0,0"
             style="fill:#a6965e;fill-opacity:1;fill-rule:nonzero;stroke:none"
             id="path427" />
        </g>
        <g
           id="g429"
           transform="translate(47.1061,800.6144)">
          <path
             d="M 0,0 C -0.011,9.369 7.574,16.973 16.943,16.985 26.312,16.996 33.915,9.41 33.927,0.042 33.938,-9.326 26.353,-16.93 16.984,-16.942 7.616,-16.953 0.011,-9.368 0,0"
             style="fill:#000000;fill-opacity:1;fill-rule:nonzero;stroke:none"
             id="path431" />
        </g>
        <g
           id="g433"
           transform="translate(51.8605,800.6204)">
          <path
             d="M 0,0 C -0.008,6.756 5.461,12.24 12.218,12.248 18.974,12.256 24.458,6.786 24.466,0.03 24.474,-6.726 19.004,-12.21 12.248,-12.218 5.491,-12.227 0.008,-6.755 0,0"
             style="fill:#a6965e;fill-opacity:1;fill-rule:nonzero;stroke:none"
             id="path435" />
        </g>
        <g
           id="g437"
           transform="translate(78.5617,807.6442)">
          <path
             d="m 0,0 c 0.036,-0.237 -0.002,-0.462 -0.115,-0.681 -0.092,-0.173 -0.212,-0.321 -0.362,-0.445 -0.149,-0.12 -0.299,-0.22 -0.451,-0.3 -0.385,-0.197 -0.75,-0.286 -1.096,-0.267 -0.467,0.024 -0.809,0.255 -1.036,0.693 l -0.638,1.247 2.895,1.48 0.638,-1.247 C -0.076,0.3 -0.02,0.141 0,0 m -1.006,0.883 -1.889,-0.966 0.285,-0.558 c 0.146,-0.285 0.386,-0.411 0.727,-0.381 0.185,0.017 0.383,0.082 0.599,0.19 0.295,0.151 0.498,0.311 0.606,0.485 0.111,0.171 0.097,0.395 -0.043,0.672 z M -2.323,3.514 C -2.276,3.389 -2.26,3.263 -2.275,3.13 -2.287,3.023 -2.315,2.921 -2.361,2.822 -2.406,2.724 -2.475,2.633 -2.568,2.543 -2.681,2.438 -2.818,2.361 -2.982,2.317 -3.142,2.272 -3.305,2.295 -3.475,2.383 -3.417,2.232 -3.407,2.097 -3.447,1.975 -3.485,1.855 -3.587,1.717 -3.754,1.559 L -3.913,1.409 C -4.02,1.309 -4.089,1.238 -4.121,1.191 -4.17,1.12 -4.188,1.049 -4.172,0.974 l -0.06,-0.055 -0.51,0.545 c 0.037,0.063 0.07,0.112 0.096,0.151 0.055,0.075 0.116,0.145 0.186,0.212 l 0.217,0.21 c 0.151,0.143 0.224,0.265 0.225,0.367 0.002,0.099 -0.066,0.219 -0.203,0.369 L -4.7,3.286 -5.631,2.415 -6.084,2.899 -3.709,5.12 -2.62,3.955 C -2.469,3.786 -2.369,3.64 -2.323,3.514 M -3.669,4.25 -4.307,3.653 -3.781,3.09 c 0.104,-0.11 0.195,-0.182 0.274,-0.215 0.137,-0.056 0.27,-0.021 0.405,0.102 0.144,0.135 0.197,0.271 0.157,0.414 -0.022,0.079 -0.084,0.172 -0.184,0.281 z M -7.086,3.962 c -0.337,-0.096 -0.707,-0.028 -1.112,0.202 -0.401,0.231 -0.647,0.517 -0.734,0.86 -0.131,0.432 -0.049,0.899 0.241,1.409 0.297,0.516 0.661,0.821 1.097,0.916 0.338,0.096 0.709,0.027 1.113,-0.203 C -6.08,6.915 -5.835,6.629 -5.747,6.286 -5.613,5.865 -5.694,5.397 -5.99,4.878 -6.28,4.373 -6.644,4.069 -7.086,3.962 m -0.122,0.64 c 0.237,0.093 0.446,0.298 0.629,0.615 0.182,0.316 0.253,0.598 0.215,0.851 -0.037,0.25 -0.17,0.442 -0.405,0.579 C -7.001,6.782 -7.236,6.802 -7.475,6.71 -7.712,6.617 -7.921,6.412 -8.106,6.096 -8.288,5.779 -8.361,5.495 -8.32,5.243 -8.281,4.991 -8.146,4.799 -7.911,4.664 -7.678,4.528 -7.444,4.509 -7.208,4.602 m -3.453,1.056 c -0.295,-0.189 -0.669,-0.233 -1.123,-0.131 -0.452,0.104 -0.77,0.306 -0.954,0.608 -0.251,0.374 -0.31,0.845 -0.181,1.418 0.133,0.58 0.392,0.978 0.782,1.196 0.294,0.19 0.668,0.234 1.123,0.132 0.451,-0.104 0.769,-0.306 0.953,-0.608 0.251,-0.364 0.311,-0.835 0.179,-1.418 -0.13,-0.567 -0.389,-0.965 -0.779,-1.197 m -0.304,0.578 c 0.199,0.158 0.34,0.414 0.421,0.772 0.081,0.354 0.067,0.645 -0.042,0.876 -0.109,0.229 -0.293,0.373 -0.557,0.436 -0.262,0.059 -0.493,0.011 -0.694,-0.146 -0.199,-0.159 -0.341,-0.416 -0.424,-0.772 -0.082,-0.357 -0.068,-0.65 0.044,-0.879 0.11,-0.229 0.297,-0.374 0.562,-0.435 0.262,-0.06 0.49,-0.011 0.69,0.148 M -17,9.014 l 0.71,0.051 1.453,-2.172 -0.161,2.264 0.631,0.044 0.231,-3.242 -0.678,-0.048 -1.489,2.208 0.165,-2.303 -0.632,-0.044 z m -1.61,-0.95 -1.626,-0.562 0.225,-0.653 1.493,0.517 0.184,-0.534 -1.492,-0.516 0.272,-0.79 1.702,0.588 0.191,-0.552 -2.329,-0.805 -1.062,3.073 2.253,0.778 z m -4.566,-1.405 0.622,0.454 0.316,-2.281 0.72,-0.988 -0.55,-0.4 -0.719,0.988 -2.104,0.978 0.647,0.471 1.379,-0.747 z m -2.262,-2.499 -1.127,-1.3 0.522,-0.452 1.035,1.192 0.426,-0.369 -1.035,-1.193 0.632,-0.548 1.179,1.359 0.441,-0.382 -1.614,-1.861 -2.456,2.13 1.563,1.801 z m -3.926,-4.762 1.044,2.055 0.509,-0.259 -0.738,-1.452 0.667,-0.339 0.646,1.272 0.503,-0.255 -0.646,-1.272 1.215,-0.618 -0.305,-0.602 z"
             style="fill:#a6965e;fill-opacity:1;fill-rule:nonzero;stroke:none"
             id="path439" />
        </g>
        <g
           id="g441"
           transform="translate(52.8907,794.0032)">
          <path
             d="M 0,0 C 0.009,-0.133 -0.013,-0.26 -0.066,-0.382 -0.109,-0.481 -0.166,-0.57 -0.238,-0.652 -0.31,-0.731 -0.402,-0.799 -0.518,-0.858 -0.656,-0.925 -0.81,-0.959 -0.98,-0.954 -1.147,-0.95 -1.296,-0.88 -1.433,-0.745 -1.42,-0.906 -1.451,-1.039 -1.525,-1.144 -1.597,-1.248 -1.734,-1.35 -1.938,-1.453 L -2.135,-1.548 C -2.267,-1.613 -2.355,-1.66 -2.399,-1.697 -2.466,-1.75 -2.504,-1.813 -2.511,-1.889 l -0.073,-0.036 -0.329,0.671 c 0.055,0.05 0.101,0.087 0.137,0.116 0.073,0.057 0.153,0.105 0.239,0.149 l 0.27,0.137 c 0.185,0.093 0.291,0.187 0.322,0.286 0.03,0.093 0.001,0.228 -0.086,0.412 l -0.309,0.63 -1.144,-0.561 -0.292,0.596 2.92,1.43 0.701,-1.433 C -0.06,0.302 -0.007,0.134 0,0 M -1.072,1.096 -1.856,0.712 -1.518,0.021 c 0.068,-0.137 0.133,-0.232 0.199,-0.286 0.115,-0.094 0.252,-0.1 0.418,-0.021 0.176,0.086 0.267,0.201 0.27,0.35 0.002,0.082 -0.03,0.189 -0.094,0.323 z"
             style="fill:#a6965e;fill-opacity:1;fill-rule:nonzero;stroke:none"
             id="path443" />
        </g>
        <g
           id="g445"
           transform="translate(53.2035,789.0735)">
          <path
             d="m 0,0 c -0.351,0.008 -0.685,0.181 -1.005,0.519 -0.316,0.338 -0.466,0.684 -0.45,1.037 0.002,0.451 0.216,0.875 0.643,1.277 C -0.377,3.24 0.06,3.425 0.505,3.388 0.855,3.381 1.19,3.207 1.509,2.868 1.825,2.53 1.976,2.185 1.959,1.831 1.964,1.39 1.751,0.966 1.316,0.557 0.89,0.159 0.453,-0.027 0,0 M 0.071,0.648 C 0.324,0.668 0.584,0.803 0.852,1.052 1.118,1.301 1.268,1.55 1.306,1.804 1.344,2.054 1.272,2.276 1.089,2.476 0.905,2.672 0.686,2.761 0.432,2.743 0.178,2.723 -0.082,2.589 -0.351,2.34 -0.619,2.091 -0.771,1.839 -0.806,1.586 -0.842,1.334 -0.769,1.11 -0.584,0.912 -0.4,0.716 -0.183,0.629 0.071,0.648"
             style="fill:#a6965e;fill-opacity:1;fill-rule:nonzero;stroke:none"
             id="path447" />
        </g>
        <g
           id="g449"
           transform="translate(58.3168,789.0292)">
          <path
             d="m 0,0 -0.313,-0.483 -0.816,0.528 -1.455,-2.245 -0.574,0.371 1.455,2.245 -0.82,0.532 0.312,0.483 z"
             style="fill:#a6965e;fill-opacity:1;fill-rule:nonzero;stroke:none"
             id="path451" />
        </g>
        <g
           id="g453"
           transform="translate(61.5074,787.9343)">
          <path
             d="m 0,0 -0.177,-0.548 -0.925,0.3 -0.824,-2.546 -0.651,0.211 0.824,2.545 -0.929,0.301 0.176,0.548 z"
             style="fill:#a6965e;fill-opacity:1;fill-rule:nonzero;stroke:none"
             id="path455" />
        </g>
        <g
           id="g457"
           transform="translate(64.6814,787.1632)">
          <path
             d="m 0,0 -1.72,0.058 -0.023,-0.691 1.579,-0.053 -0.019,-0.564 -1.579,0.054 -0.027,-0.837 1.798,-0.06 -0.02,-0.584 -2.462,0.083 0.11,3.249 2.382,-0.081 z"
             style="fill:#a6965e;fill-opacity:1;fill-rule:nonzero;stroke:none"
             id="path459" />
        </g>
        <g
           id="g461"
           transform="translate(67.8364,788.2118)">
          <path
             d="M 0,0 C 0.132,-0.021 0.25,-0.071 0.356,-0.151 0.443,-0.214 0.517,-0.29 0.581,-0.378 0.642,-0.466 0.687,-0.571 0.719,-0.698 0.753,-0.848 0.752,-1.005 0.708,-1.169 0.666,-1.33 0.565,-1.46 0.403,-1.564 c 0.16,-0.024 0.282,-0.084 0.368,-0.179 0.085,-0.094 0.153,-0.25 0.207,-0.473 l 0.049,-0.213 c 0.033,-0.143 0.06,-0.239 0.086,-0.29 0.036,-0.077 0.089,-0.128 0.162,-0.152 L 1.293,-2.95 0.566,-3.12 C 0.53,-3.055 0.504,-3.002 0.483,-2.96 0.445,-2.876 0.415,-2.788 0.392,-2.693 L 0.319,-2.4 C 0.27,-2.198 0.202,-2.074 0.114,-2.023 0.03,-1.972 -0.11,-1.97 -0.307,-2.014 l -0.683,-0.159 0.288,-1.241 -0.647,-0.15 -0.735,3.167 1.553,0.36 C -0.308,0.01 -0.132,0.023 0,0 m -1.309,-0.797 0.197,-0.851 0.75,0.174 c 0.148,0.034 0.256,0.077 0.323,0.129 0.117,0.091 0.154,0.224 0.115,0.403 -0.045,0.191 -0.137,0.306 -0.281,0.343 -0.079,0.019 -0.191,0.012 -0.335,-0.02 z"
             style="fill:#a6965e;fill-opacity:1;fill-rule:nonzero;stroke:none"
             id="path463" />
        </g>
        <g
           id="g465"
           transform="translate(70.9567,789.6713)">
          <path
             d="M 0,0 C 0.234,0.049 0.461,0.022 0.686,-0.08 0.864,-0.162 1.018,-0.275 1.149,-0.418 1.278,-0.56 1.384,-0.705 1.472,-0.853 1.689,-1.227 1.798,-1.587 1.798,-1.933 1.797,-2.4 1.585,-2.756 1.159,-3.004 l -1.213,-0.702 -1.628,2.813 1.212,0.702 C -0.296,-0.093 -0.14,-0.028 0,0 m -0.828,-1.051 1.062,-1.836 0.542,0.314 c 0.278,0.16 0.391,0.407 0.343,0.746 -0.027,0.183 -0.101,0.377 -0.221,0.589 -0.165,0.285 -0.337,0.48 -0.517,0.579 -0.176,0.102 -0.398,0.076 -0.668,-0.078 z"
             style="fill:#a6965e;fill-opacity:1;fill-rule:nonzero;stroke:none"
             id="path467" />
        </g>
        <g
           id="g469"
           transform="translate(72.9721,791.3173)">
          <path
             d="M 0,0 0.523,0.563 3.687,-0.809 3.186,-1.348 2.554,-1.047 1.738,-1.923 2.073,-2.543 1.59,-3.064 Z m 1.452,-1.408 0.562,0.604 -1.212,0.575 z"
             style="fill:#a6965e;fill-opacity:1;fill-rule:nonzero;stroke:none"
             id="path471" />
        </g>
        <g
           id="g473"
           transform="translate(75.7378,795.1379)">
          <path
             d="M 0,0 0.457,0.864 3.329,-0.659 3.034,-1.219 1.009,-0.141 C 0.955,-0.112 2.717,-1.778 2.717,-1.778 L 2.414,-2.382 c 0,0 -2.409,0.506 -2.352,0.479 l 2.044,-1.082 -0.296,-0.56 -2.872,1.522 0.462,0.874 2.483,-0.57 z"
             style="fill:#a6965e;fill-opacity:1;fill-rule:nonzero;stroke:none"
             id="path475" />
        </g>
        <g
           id="g477"
           transform="translate(61.3293,807.6558)">
          <path
             d="M 0,0 2.716,0.003 V -6.146 L 0.008,-6.172 Z"
             style="fill:#df0020;fill-opacity:1;fill-rule:nonzero;stroke:none"
             id="path479" />
        </g>
        <g
           id="g481"
           transform="translate(77.7722,800.52)">
          <path
             d="M 0,0 C -0.001,0.444 0.359,0.804 0.803,0.804 1.246,0.805 1.606,0.446 1.606,0.002 1.607,-0.441 1.248,-0.802 0.805,-0.802 0.361,-0.803 0.001,-0.443 0,0"
             style="fill:#a6965e;fill-opacity:1;fill-rule:nonzero;stroke:none"
             id="path483" />
        </g>
        <g
           id="g485"
           transform="translate(64.162,808.5664)">
          <path
             d="m 0,0 -6.845,-0.09 10e-4,-0.826 0.813,0.002 c 0,0 0.899,0 0.9,-1.272 0.002,-1.264 0.015,-11.879 0.015,-11.879 10e-4,-0.903 -0.762,-0.962 -1.056,-0.962 -0.61,0 -0.61,-0.001 -0.61,-0.001 l 0.001,-0.878 5.872,0.008 -0.001,0.877 c 0,0 -0.544,0 -0.746,0 0,0 -1.061,0.078 -1.062,0.975 -10e-4,1.108 -0.007,6.061 -0.007,6.061 l 2.721,-0.004 v -11.677 c -6.405,-0.008 -11.578,5.317 -11.586,11.721 -0.008,6.404 5.182,11.603 11.586,11.61"
             style="fill:#df0020;fill-opacity:1;fill-rule:nonzero;stroke:none"
             id="path487" />
        </g>
        <g
           id="g489"
           transform="translate(64.0452,788.9003)">
          <path
             d="M 0,0 C 6.405,0.008 11.629,5.345 11.621,11.749 11.613,18.154 6.404,23.339 0,23.332 l 0.004,-3.666 5.59,0.064 0.502,-3.974 -0.903,-0.002 c 0,0 -0.195,1.366 -1.11,2.077 -0.61,0.473 -1.378,0.954 -2.712,0.952 C 0.655,18.782 0,18.763 0,18.763 v -6.154 c 0.226,0 1.142,0.255 1.142,1.334 0,0.426 -0.013,0.429 -0.013,0.429 L 1.886,14.373 2.864,9.067 1.96,9.042 C 1.794,9.675 1.383,11.82 0,11.677 Z"
             style="fill:#ffffff;fill-opacity:1;fill-rule:nonzero;stroke:none"
             id="path491" />
        </g>
        <g
           id="g493"
           transform="translate(48.7339,800.52)">
          <path
             d="M 0,0 C -0.001,0.444 0.359,0.804 0.803,0.804 1.246,0.805 1.606,0.446 1.606,0.002 1.607,-0.441 1.248,-0.802 0.805,-0.802 0.361,-0.803 0.001,-0.443 0,0"
             style="fill:#a6965e;fill-opacity:1;fill-rule:nonzero;stroke:none"
             id="path495" />
        </g>
        <path
           d="m 63.885,788.712 h 0.301 v 23.766 h -0.301 z"
           style="fill:#a6965e;fill-opacity:1;fill-rule:nonzero;stroke:none"
           id="path497" />
        <g
           id="g499"
           transform="translate(46.3584,819.8344)">
          <path
             d="M 0,0 C -0.163,0.233 -0.292,0.419 -0.395,0.566 -0.467,0.67 -0.503,0.721 -0.568,0.677 -0.65,0.62 -0.857,0.225 -0.925,0.12 -0.94,0.096 -0.956,0.072 -0.973,0.06 -0.986,0.051 -1.023,0.057 -1.041,0.084 c -0.018,0.025 -0.011,0.062 10e-4,0.091 0.012,0.02 0.462,1.143 0.535,1.361 0.021,0.053 0.038,0.11 0.073,0.134 0.038,0.028 0.085,-0.011 0.115,-0.054 C -0.293,1.581 -0.02,1.135 0.44,0.474 L 0.998,-0.325 C 1.287,-0.741 1.543,-1.108 1.693,-1.286 1.802,-1.415 1.869,-1.465 2.028,-1.399 2.102,-1.366 2.297,-1.25 2.332,-1.226 2.348,-1.214 2.38,-1.212 2.4,-1.242 2.421,-1.272 2.406,-1.296 2.358,-1.329 2.03,-1.558 1.744,-1.738 1.628,-1.82 1.528,-1.888 1.174,-2.155 0.897,-2.347 0.85,-2.381 0.818,-2.39 0.797,-2.359 c -0.021,0.03 -0.013,0.055 0.005,0.067 0.048,0.033 0.259,0.199 0.324,0.271 0.117,0.127 0.097,0.202 0.013,0.35 -0.115,0.202 -0.363,0.575 -0.656,0.987 z"
             style="fill:#000000;fill-opacity:1;fill-rule:nonzero;stroke:none"
             id="path501" />
        </g>
        <g
           id="g503"
           transform="translate(51.2269,822.8861)">
          <path
             d="m 0,0 c 0.672,-1.313 -0.055,-2.726 -0.498,-3.296 -0.016,-0.026 -0.037,-0.043 -0.074,-0.062 -0.019,-0.01 -0.055,0.002 -0.067,0.026 -0.017,0.033 0.002,0.077 0.015,0.108 0.338,0.544 0.675,1.688 0.11,2.795 -0.425,0.83 -0.963,1.016 -1.325,0.831 -0.338,-0.172 -0.409,-0.587 -0.205,-0.986 0.367,-0.717 0.918,-0.649 1.077,-0.568 0.164,0.084 0.243,0.16 0.29,0.22 0.037,0.054 0.048,0.09 0.068,0.099 0.018,0.01 0.046,0.001 0.058,-0.022 0.007,-0.015 0.008,-0.051 0.004,-0.064 -0.062,-0.215 -0.27,-0.41 -0.509,-0.532 -0.676,-0.346 -1.219,0.021 -1.42,0.415 -0.324,0.634 -0.08,1.338 0.642,1.707 C -1.07,1.062 -0.364,0.713 0,0"
             style="fill:#000000;fill-opacity:1;fill-rule:nonzero;stroke:none"
             id="path505" />
        </g>
      </g>
    </g>
    <g
       id="g507"
       transform="matrix(1.8922104,0,0,-1.8922104,11.279978,1621.0616)">
      <g
         id="g509"
         clip-path="url(#clipPath513)">
        <g
           id="g515"
           transform="translate(53.4737,825.0527)">
          <path
             d="m 0,0 c -0.373,-0.13 -0.462,-0.737 -0.066,-1.871 0.3,-0.86 0.844,-1.73 1.391,-1.54 0.403,0.142 0.413,0.909 0.076,1.875 C 1.101,-0.676 0.542,0.189 0,0 m 1.308,-3.667 c -0.98,-0.342 -1.644,0.698 -1.891,1.404 -0.405,1.159 -0.31,2.202 0.609,2.523 0.985,0.344 1.614,-0.609 1.889,-1.399 0.431,-1.233 0.249,-2.229 -0.607,-2.528"
             style="fill:#000000;fill-opacity:1;fill-rule:nonzero;stroke:none"
             id="path517" />
        </g>
        <g
           id="g519"
           transform="translate(58.4928,822.6558)">
          <path
             d="M 0,0 C 0.403,0.081 0.666,0.452 0.571,0.927 0.467,1.443 0.005,1.603 -0.509,1.778 -0.756,1.562 -1.023,1.18 -0.916,0.654 -0.824,0.194 -0.419,-0.084 0,0 M -0.693,3.595 C -1.142,3.505 -1.258,3.148 -1.2,2.859 -1.135,2.539 -0.871,2.372 -0.348,2.203 -0.212,2.3 0.104,2.574 -0.001,3.096 -0.079,3.482 -0.383,3.658 -0.693,3.595 m -0.8,-3.09 c -0.116,0.574 0.256,1.046 0.717,1.348 -0.474,0.136 -0.852,0.355 -0.94,0.795 -0.081,0.402 0.157,1.004 1.035,1.18 C -0.051,3.956 0.436,3.753 0.537,3.252 0.646,2.71 0.233,2.31 -0.029,2.143 0.377,2.021 1.015,1.817 1.144,1.177 1.267,0.567 0.874,-0.071 0.007,-0.246 -0.757,-0.4 -1.366,-0.13 -1.493,0.505"
             style="fill:#000000;fill-opacity:1;fill-rule:nonzero;stroke:none"
             id="path521" />
        </g>
        <g
           id="g523"
           transform="translate(64.797,824.7381)">
          <path
             d="m 0,0 c 0.094,0.001 0.169,-0.008 0.17,-0.071 0.001,-0.074 -0.088,-0.092 -0.235,-0.12 -0.211,-0.035 -1.171,-0.219 -1.355,-0.275 -0.105,-0.028 -0.189,-0.087 -0.23,-0.088 -0.042,0 -0.054,0.041 -0.045,0.095 l 0.074,0.364 c 0.015,0.064 0.035,0.069 0.126,0.071 z"
             style="fill:#000000;fill-opacity:1;fill-rule:nonzero;stroke:none"
             id="path525" />
        </g>
        <g
           id="g527"
           transform="translate(68.3483,822.7911)">
          <path
             d="M 0,0 C -0.036,0.008 -0.067,0.045 -0.058,0.087 -0.051,0.128 0.01,0.164 0.071,0.201 0.919,0.696 2.104,1.302 2.317,2.394 2.476,3.21 2.058,3.464 1.799,3.514 1.577,3.557 1.398,3.549 1.215,3.434 1.068,3.34 0.928,3.115 0.902,2.981 0.892,2.929 0.867,2.885 0.815,2.896 0.79,2.901 0.781,2.939 0.788,3.002 0.792,3.05 0.849,3.484 0.878,3.634 0.888,3.681 0.897,3.701 0.96,3.725 1.183,3.789 1.479,3.828 1.934,3.74 2.845,3.563 3.136,2.991 3.018,2.386 2.823,1.382 1.541,0.726 0.771,0.322 0.741,0.307 0.748,0.289 0.774,0.284 L 1.126,0.216 C 1.214,0.199 1.825,0.086 2.021,0.074 2.386,0.046 2.591,0.188 2.7,0.419 2.728,0.478 2.748,0.496 2.779,0.49 2.814,0.483 2.81,0.435 2.801,0.383 2.784,0.301 2.592,-0.161 2.507,-0.326 2.438,-0.458 2.352,-0.458 2.027,-0.394 Z"
             style="fill:#000000;fill-opacity:1;fill-rule:nonzero;stroke:none"
             id="path529" />
        </g>
      </g>
    </g>
    <g
       id="g531"
       transform="matrix(1.8922104,0,0,-1.8922104,11.279978,1621.0616)">
      <g
         id="g533"
         clip-path="url(#clipPath537)">
        <g
           id="g539"
           transform="translate(74.522,825.1689)">
          <path
             d="m 0,0 c -0.373,0.128 -0.819,-0.294 -1.206,-1.431 -0.295,-0.863 -0.404,-1.882 0.145,-2.07 0.403,-0.137 0.886,0.46 1.216,1.428 C 0.449,-1.211 0.544,-0.186 0,0 m -1.232,-3.692 c -0.983,0.335 -0.864,1.563 -0.622,2.271 0.397,1.161 1.113,1.924 2.036,1.609 0.987,-0.336 0.893,-1.474 0.622,-2.266 -0.421,-1.237 -1.18,-1.907 -2.036,-1.614"
             style="fill:#000000;fill-opacity:1;fill-rule:nonzero;stroke:none"
             id="path541" />
        </g>
        <g
           id="g543"
           transform="translate(78.5656,823.4808)">
          <path
             d="m 0,0 c -0.353,0.178 -0.85,-0.18 -1.39,-1.252 -0.409,-0.814 -0.656,-1.811 -0.139,-2.07 0.381,-0.192 0.941,0.333 1.4,1.247 C 0.281,-1.261 0.514,-0.258 0,0 m -1.724,-3.49 c -0.928,0.467 -0.643,1.668 -0.307,2.335 0.552,1.098 1.366,1.756 2.237,1.318 C 1.137,-0.306 0.89,-1.42 0.514,-2.168 -0.073,-3.336 -0.915,-3.897 -1.724,-3.49"
             style="fill:#000000;fill-opacity:1;fill-rule:nonzero;stroke:none"
             id="path545" />
        </g>
        <g
           id="g547"
           transform="translate(82.4338,821.2089)">
          <path
             d="m 0,0 c -0.378,0.26 -0.714,0.094 -0.882,-0.148 -0.184,-0.27 -0.12,-0.576 0.123,-1.069 0.165,-0.03 0.581,-0.067 0.882,0.372 C 0.347,-0.519 0.261,-0.18 0,0 m -2.099,-2.999 c 0.339,-0.234 0.788,-0.165 1.063,0.234 0.298,0.434 0.091,0.877 -0.14,1.368 -0.328,0.027 -0.787,-0.047 -1.091,-0.49 -0.266,-0.386 -0.184,-0.871 0.168,-1.112 m -0.677,1.423 c 0.331,0.482 0.93,0.544 1.467,0.424 -0.232,0.434 -0.338,0.858 -0.084,1.227 0.233,0.339 0.831,0.586 1.569,0.079 0.53,-0.364 0.723,-0.855 0.434,-1.276 -0.314,-0.456 -0.888,-0.438 -1.19,-0.365 0.195,-0.376 0.492,-0.977 0.122,-1.515 -0.353,-0.513 -1.083,-0.675 -1.812,-0.173 -0.643,0.441 -0.873,1.065 -0.506,1.599"
             style="fill:#000000;fill-opacity:1;fill-rule:nonzero;stroke:none"
             id="path549" />
        </g>
        <g
           id="g551"
           transform="translate(89.2334,797.6423)">
          <path
             d="m 0,0 c 0,5.7 -2.072,10.935 -5.532,15.067 3.091,-3.97 4.922,-8.9 4.922,-14.242 0,-9.413 -5.684,-17.547 -13.928,-21.4 v -1.293 C -5.947,-18.005 0,-9.666 0,0"
             style="fill:#000000;fill-opacity:1;fill-rule:nonzero;stroke:none"
             id="path553" />
        </g>
        <g
           id="g555"
           transform="translate(39.2205,798.4677)">
          <path
             d="m 0,0 c 0,5.343 1.832,10.276 4.925,14.246 -3.461,-4.132 -5.536,-9.37 -5.536,-15.071 0,-9.746 6.045,-18.142 14.751,-21.963 v 1.291 C 5.782,-17.686 0,-9.494 0,0"
             style="fill:#000000;fill-opacity:1;fill-rule:nonzero;stroke:none"
             id="path557" />
        </g>
        <g
           id="g559"
           transform="translate(36.6781,797.3232)">
          <path
             d="M 0,0 C 0.058,6.289 2.068,12.248 5.429,16.928 1.611,12.083 -0.678,5.942 -0.678,-0.744 c 0,-0.08 0.002,-0.16 0.003,-0.239 -0.001,-0.095 -0.003,-0.189 -0.003,-0.284 0,-12.091 7.176,-22.445 17.361,-26.754 v 2.541 C 6.944,-21.287 0.088,-11.468 0,0"
             style="fill:#000000;fill-opacity:1;fill-rule:nonzero;stroke:none"
             id="path561" />
        </g>
        <g
           id="g563"
           transform="translate(91.8424,796.5787)">
          <path
             d="M 0,0 C 0,6.684 -2.285,12.822 -6.102,17.666 -2.743,12.988 -0.734,7.031 -0.676,0.744 -0.764,-10.64 -7.522,-20.397 -17.147,-24.642 v -2.545 C -7.076,-22.825 0,-12.53 0,-0.523 0,-0.428 -0.002,-0.333 -0.003,-0.239 -0.002,-0.159 0,-0.08 0,0"
             style="fill:#000000;fill-opacity:1;fill-rule:nonzero;stroke:none"
             id="path565" />
        </g>
        <g
           id="g567"
           transform="translate(57.3658,774.5689)">
          <path
             d="M 0,0 V 1.08 C 0,1.278 0,1.377 -0.124,1.377 -0.28,1.377 -0.898,1.055 -1.08,0.98 -1.121,0.964 -1.163,0.947 -1.196,0.947 c -0.024,0 -0.066,0.042 -0.066,0.091 0,0.05 0.042,0.091 0.083,0.116 0.033,0.016 1.616,1.055 1.905,1.269 0.074,0.051 0.148,0.108 0.215,0.108 0.074,0 0.098,-0.091 0.098,-0.173 0,-0.066 -0.05,-0.883 -0.05,-2.144 v -1.526 c 0,-0.791 0,-1.493 0.033,-1.856 0.026,-0.264 0.067,-0.387 0.33,-0.446 0.125,-0.024 0.479,-0.048 0.545,-0.048 0.033,0 0.074,-0.026 0.074,-0.083 0,-0.057 -0.041,-0.074 -0.132,-0.074 -0.627,0 -1.155,0.025 -1.377,0.025 -0.19,0 -0.883,-0.025 -1.411,-0.025 -0.09,0 -0.14,0.017 -0.14,0.074 0,0.057 0.033,0.083 0.066,0.083 0.091,0 0.512,0.024 0.661,0.058 0.263,0.058 0.305,0.172 0.329,0.436 0.033,0.363 0.05,1.065 0.041,1.856 z"
             style="fill:#000000;fill-opacity:1;fill-rule:nonzero;stroke:none"
             id="path569" />
        </g>
        <g
           id="g571"
           transform="translate(63.3861,776.7287)">
          <path
             d="m 0,0 c -0.618,0 -1.064,-0.849 -1.064,-2.73 0,-1.427 0.354,-2.993 1.262,-2.993 0.668,0 1.08,1.129 1.08,2.729 C 1.278,-1.567 0.899,0 0,0 m 0.041,-6.094 c -1.625,0 -2.07,1.88 -2.07,3.051 0,1.921 0.677,3.414 2.202,3.414 1.632,0 2.07,-1.731 2.07,-3.043 0,-2.045 -0.783,-3.422 -2.202,-3.422"
             style="fill:#000000;fill-opacity:1;fill-rule:nonzero;stroke:none"
             id="path573" />
        </g>
        <g
           id="g575"
           transform="translate(69.1582,776.7287)">
          <path
             d="m 0,0 c -0.618,0 -1.064,-0.849 -1.064,-2.73 0,-1.427 0.355,-2.993 1.263,-2.993 0.667,0 1.08,1.129 1.08,2.729 C 1.279,-1.567 0.899,0 0,0 m 0.042,-6.094 c -1.625,0 -2.069,1.88 -2.069,3.051 0,1.921 0.675,3.414 2.201,3.414 1.632,0 2.07,-1.731 2.07,-3.043 0,-2.045 -0.784,-3.422 -2.202,-3.422"
             style="fill:#000000;fill-opacity:1;fill-rule:nonzero;stroke:none"
             id="path577" />
        </g>
        <g
           id="g579"
           transform="translate(57.0417,767.4352)">
          <path
             d="m 0,0 c 0,0.785 0,0.932 -0.006,1.096 -0.012,0.176 -0.061,0.23 -0.231,0.279 -0.043,0.013 -0.134,0.018 -0.214,0.018 -0.054,0 -0.091,0.02 -0.091,0.055 0,0.037 0.043,0.049 0.122,0.049 0.28,0 0.669,-0.012 0.809,-0.012 0.128,0 0.469,0.012 0.683,0.012 0.073,0 0.109,-0.012 0.109,-0.049 C 1.181,1.413 1.151,1.393 1.084,1.393 1.029,1.393 0.992,1.388 0.931,1.375 0.785,1.352 0.743,1.278 0.731,1.096 0.718,0.932 0.718,0.785 0.718,0 v -0.962 c 0,-0.219 0.019,-0.469 0.019,-0.73 0,-0.293 -0.019,-0.622 -0.128,-0.914 -0.116,-0.316 -0.445,-0.682 -0.962,-0.986 -0.067,-0.037 -0.152,-0.079 -0.268,-0.134 -0.036,-0.018 -0.085,-0.025 -0.109,-0.025 -0.025,0 -0.043,0.025 -0.043,0.049 0,0.025 0.024,0.049 0.116,0.091 0.072,0.037 0.152,0.098 0.255,0.202 C 0.006,-3.014 0,-2.503 0,-1.485 Z"
             style="fill:#000000;fill-opacity:1;fill-rule:nonzero;stroke:none"
             id="path581" />
        </g>
        <g
           id="g583"
           transform="translate(61.297,766.6072)">
          <path
             d="m 0,0 c 0.024,0 0.03,0.012 0.024,0.03 l -0.505,1.315 c -0.006,0.018 -0.012,0.049 -0.024,0.049 -0.019,0 -0.024,-0.031 -0.031,-0.049 L -1.053,0.036 C -1.065,0.012 -1.053,0 -1.035,0 Z m -1.145,-0.286 c -0.03,0 -0.036,-0.006 -0.048,-0.038 l -0.286,-0.693 c -0.055,-0.128 -0.08,-0.255 -0.08,-0.317 0,-0.091 0.05,-0.146 0.214,-0.146 h 0.079 c 0.067,0 0.079,-0.024 0.079,-0.054 0,-0.043 -0.031,-0.055 -0.085,-0.055 -0.177,0 -0.427,0.018 -0.596,0.018 -0.056,0 -0.342,-0.018 -0.622,-0.018 -0.067,0 -0.098,0.012 -0.098,0.055 0,0.03 0.019,0.054 0.062,0.054 0.048,0 0.11,0.007 0.158,0.007 0.244,0.036 0.334,0.195 0.444,0.456 l 1.4,3.258 c 0.061,0.146 0.104,0.207 0.159,0.207 0.079,0 0.103,-0.05 0.158,-0.166 0.128,-0.285 1.023,-2.404 1.364,-3.189 0.207,-0.469 0.359,-0.536 0.457,-0.554 0.079,-0.012 0.139,-0.019 0.2,-0.019 0.049,0 0.073,-0.018 0.073,-0.054 0,-0.043 -0.03,-0.055 -0.231,-0.055 -0.189,0 -0.578,0 -1.029,0.012 -0.097,0.006 -0.158,0.006 -0.158,0.043 0,0.03 0.012,0.048 0.067,0.054 0.036,0.007 0.073,0.055 0.048,0.116 l -0.413,1.04 C 0.158,-0.292 0.14,-0.286 0.116,-0.286 Z"
             style="fill:#000000;fill-opacity:1;fill-rule:nonzero;stroke:none"
             id="path585" />
        </g>
        <g
           id="g587"
           transform="translate(65.7536,766.6072)">
          <path
             d="m 0,0 c 0.024,0 0.03,0.012 0.024,0.03 l -0.505,1.315 c -0.006,0.018 -0.013,0.049 -0.024,0.049 -0.019,0 -0.025,-0.031 -0.031,-0.049 L -1.053,0.036 C -1.065,0.012 -1.053,0 -1.035,0 Z m -1.144,-0.286 c -0.031,0 -0.037,-0.006 -0.049,-0.038 l -0.286,-0.693 c -0.055,-0.128 -0.08,-0.255 -0.08,-0.317 0,-0.091 0.049,-0.146 0.214,-0.146 h 0.079 c 0.067,0 0.079,-0.024 0.079,-0.054 0,-0.043 -0.031,-0.055 -0.085,-0.055 -0.177,0 -0.427,0.018 -0.597,0.018 -0.055,0 -0.341,-0.018 -0.621,-0.018 -0.067,0 -0.097,0.012 -0.097,0.055 0,0.03 0.018,0.054 0.06,0.054 0.049,0 0.11,0.007 0.159,0.007 0.243,0.036 0.335,0.195 0.444,0.456 l 1.4,3.258 c 0.061,0.146 0.104,0.207 0.159,0.207 0.079,0 0.103,-0.05 0.158,-0.166 0.127,-0.285 1.023,-2.404 1.363,-3.189 0.208,-0.469 0.359,-0.536 0.457,-0.554 0.079,-0.012 0.14,-0.019 0.201,-0.019 0.049,0 0.073,-0.018 0.073,-0.054 0,-0.043 -0.03,-0.055 -0.231,-0.055 -0.189,0 -0.579,0 -1.029,0.012 -0.098,0.006 -0.159,0.006 -0.159,0.043 0,0.03 0.013,0.048 0.068,0.054 0.036,0.007 0.073,0.055 0.048,0.116 l -0.414,1.04 c -0.012,0.032 -0.03,0.038 -0.055,0.038 z"
             style="fill:#000000;fill-opacity:1;fill-rule:nonzero;stroke:none"
             id="path589" />
        </g>
        <g
           id="g591"
           transform="translate(69.5152,767.033)">
          <path
             d="m 0,0 c 0,-0.055 0.013,-0.073 0.049,-0.091 0.116,-0.037 0.274,-0.049 0.408,-0.049 0.213,0 0.286,0.018 0.377,0.085 0.165,0.116 0.347,0.341 0.347,0.767 0,0.731 -0.498,0.92 -0.816,0.92 C 0.231,1.632 0.104,1.626 0.049,1.614 0.013,1.602 0,1.583 0,1.541 Z m -0.681,0.402 c 0,0.785 0,0.932 -0.006,1.096 -0.012,0.176 -0.061,0.231 -0.232,0.28 -0.042,0.012 -0.134,0.017 -0.213,0.017 -0.055,0 -0.092,0.02 -0.092,0.056 0,0.036 0.043,0.049 0.123,0.049 0.28,0 0.621,-0.013 0.729,-0.013 0.184,0 0.67,0.013 0.835,0.013 0.341,0 0.73,-0.031 1.017,-0.219 0.152,-0.104 0.377,-0.366 0.377,-0.713 0,-0.384 -0.219,-0.724 -0.742,-1.144 0.474,-0.585 0.852,-1.053 1.174,-1.377 0.299,-0.298 0.488,-0.322 0.572,-0.339 0.056,-0.014 0.086,-0.014 0.129,-0.014 0.042,0 0.066,-0.03 0.066,-0.053 0,-0.044 -0.036,-0.056 -0.104,-0.056 h -0.51 c -0.299,0 -0.445,0.03 -0.585,0.103 -0.231,0.116 -0.432,0.359 -0.73,0.762 -0.213,0.28 -0.439,0.627 -0.506,0.706 -0.03,0.03 -0.06,0.036 -0.097,0.036 L 0.042,-0.396 C 0.019,-0.396 0,-0.408 0,-0.438 v -0.073 c 0,-0.481 0.007,-0.883 0.03,-1.102 0.019,-0.152 0.043,-0.25 0.207,-0.274 0.08,-0.012 0.195,-0.019 0.263,-0.019 0.042,0 0.066,-0.03 0.066,-0.053 0,-0.038 -0.042,-0.056 -0.109,-0.056 -0.311,0 -0.755,0.018 -0.834,0.018 -0.103,0 -0.444,-0.018 -0.658,-0.018 -0.066,0 -0.103,0.018 -0.103,0.056 0,0.023 0.018,0.053 0.085,0.053 0.079,0 0.14,0.007 0.189,0.019 0.109,0.024 0.14,0.122 0.158,0.274 0.025,0.219 0.025,0.627 0.025,1.102 z"
             style="fill:#000000;fill-opacity:1;fill-rule:nonzero;stroke:none"
             id="path593" />
        </g>
      </g>
    </g>
  </g>
</svg>
