<?xml version="1.0" encoding="UTF-8" standalone="no"?>
<svg
   xmlns:dc="http://purl.org/dc/elements/1.1/"
   xmlns:cc="http://creativecommons.org/ns#"
   xmlns:rdf="http://www.w3.org/1999/02/22-rdf-syntax-ns#"
   xmlns:svg="http://www.w3.org/2000/svg"
   xmlns="http://www.w3.org/2000/svg"
   xmlns:xlink="http://www.w3.org/1999/xlink"
   id="svg372"
   version="1.1"
   viewBox="0 0 35.907749 68.145836"
   height="68.145836mm"
   width="35.907749mm">
  <defs
     id="defs366">
    <linearGradient
       id="SVGID_24_"
       gradientUnits="userSpaceOnUse"
       x1="196.3799"
       y1="-298.24371"
       x2="196.707"
       y2="-298.24371"
       gradientTransform="matrix(43.3366,0,0,-41.2158,-8491.5918,-12285.605)">
      <stop
         offset="0"
         style="stop-color:#737271"
         id="stop245" />
      <stop
         offset="1"
         style="stop-color:#EAEBEB"
         id="stop247" />
    </linearGradient>
    <clipPath
       id="SVGID_23_">
      <use
         xlink:href="#SVGID_22_"
         overflow="visible"
         id="use242"
         style="overflow:visible"
         x="0"
         y="0"
         width="100%"
         height="100%" />
    </clipPath>
    <polygon
       id="SVGID_22_"
       points="21.594,13.483 23.28,8.329 18.888,5.15 24.311,5.161 25.976,0 27.642,5.161 33.066,5.15 28.674,8.329 30.357,13.483 25.976,10.286 " />
  </defs>
  <metadata
     id="metadata369">
    <rdf:RDF>
      <cc:Work
         rdf:about="">
        <dc:format>image/svg+xml</dc:format>
        <dc:type
           rdf:resource="http://purl.org/dc/dcmitype/StillImage" />
        <dc:title></dc:title>
      </cc:Work>
    </rdf:RDF>
  </metadata>
  <g
     transform="translate(-37.483933,-83.756193)"
     id="layer1">
    <g
       transform="matrix(0.65263689,0,0,0.65263689,38.483933,84.9857)"
       id="Herb">
      <path
         d="m 51.039,71.257 v 4.604 l -2.918,1.037 0.005,11.205 2.913,-1.029 v 4.605 L 25.976,100.538 0.915,91.68 V 87.075 L 3.826,88.104 3.832,76.899 0.915,75.862 V 71.258 L 3.832,72.29 V 38.882 L 0.91,35.261 H 5.28 L 0.916,21.021 H 51.04 l -4.366,14.24 h 4.375 l -2.927,3.621 v 33.407 z m -2.48,-32.218 c 0.177,-0.225 3.396,-4.211 3.396,-4.211 H 47.26 c 0.318,-1.036 4.367,-14.241 4.367,-14.241 H 51.04 0.33 c 0,0 4.045,13.205 4.362,14.241 H 0 c 0,0 3.216,3.986 3.397,4.211 V 71.673 C 2.652,71.407 0.481,70.641 0.481,70.641 v 5.527 c 0,0 2.445,0.872 2.916,1.035 0,0.547 -0.003,9.217 -0.003,10.286 C 2.649,87.224 0.481,86.461 0.481,86.461 v 5.528 L 25.976,101 51.473,91.988 v -5.527 c 0,0 -2.169,0.766 -2.911,1.027 0,-1.068 -0.003,-9.738 -0.003,-10.285 0.467,-0.163 2.915,-1.035 2.915,-1.035 v -5.527 c 0,0 -2.172,0.768 -2.915,1.032 z"
         id="path187"
         style="fill:#ffffff" />
      <polygon
         points="3.832,76.898 3.826,88.104 0.915,87.074 0.915,91.68 25.976,100.54 51.039,91.68 51.039,87.074 48.126,88.104 48.121,76.898 51.039,75.861 51.039,71.257 48.121,72.289 48.121,38.882 51.048,35.261 46.673,35.261 51.039,21.021 0.915,21.021 5.279,35.261 0.909,35.261 3.832,38.882 3.832,72.289 0.915,71.257 0.915,75.861 "
         id="polygon189"
         style="fill:#004b92" />
      <polygon
         points="5.279,75.861 5.279,90.152 2.364,89.121 2.364,90.654 25.976,99.007 49.59,90.654 49.59,89.121 46.673,90.152 46.673,75.861 49.598,74.832 49.59,73.303 46.673,74.333 46.673,38.882 48.429,36.708 3.524,36.708 5.279,38.882 5.279,74.333 2.364,73.303 2.357,74.832 "
         id="polygon191"
         style="fill:#ffffff" />
      <polygon
         points="26.702,38.882 26.702,81.395 45.226,74.846 45.226,38.882 "
         id="polygon193"
         style="fill:#004b92" />
      <polygon
         points="25.251,38.882 25.251,81.395 6.73,74.846 6.73,38.882 "
         id="polygon195"
         style="fill:#004b92" />
      <polygon
         points="45.224,76.32 25.976,83.126 6.73,76.32 6.73,90.663 25.976,97.469 45.224,90.663 "
         id="polygon197"
         style="fill:#004b92" />
      <polygon
         points="43.778,78.43 25.976,84.723 8.176,78.43 8.176,89.641 25.976,95.934 43.778,89.641 "
         id="polygon199"
         style="fill:#ffffff" />
      <polygon
         points="2.879,22.471 25.976,22.471 49.079,22.471 45.163,35.263 6.796,35.263 "
         id="polygon201"
         style="fill:#ffffff" />
      <polygon
         points="43.778,40.383 28.151,40.383 28.147,79.346 43.778,73.822 "
         id="polygon203"
         style="fill:#ffffff" />
      <path
         d="M 22.675,62.625 9.275,41.217 v 5.687 l 8.138,11.687 V 60.54 L 9.42,49.106 v 5.492 l 7.457,8.668 v 1.519 L 9.42,56.76 v 4.252 c 0,0 5.657,4.709 7.488,6.305 -1.191,0.711 -1.009,3.809 0.32,4.276 -1.366,3.388 0.934,4.406 2.054,4.207 0.662,1.444 3.393,1.259 3.393,0.054 l 0.029,-1.604 c -2.697,-0.44 -3.029,-6.157 -0.056,-6.517 z"
         id="path205"
         style="fill:#ffffff" />
      <path
         d="m 20.661,26.396 c -0.015,-0.215 -0.079,-0.366 -0.197,-0.472 -0.113,-0.108 -0.266,-0.153 -0.452,-0.153 -0.146,0 -0.266,0.029 -0.353,0.087 -0.092,0.061 -0.139,0.166 -0.139,0.307 0,0.221 0.128,0.413 0.38,0.561 0.085,0.045 0.337,0.145 0.747,0.299 0.572,0.212 0.978,0.472 1.229,0.789 0.286,0.347 0.423,0.832 0.423,1.446 0,0.863 -0.236,1.511 -0.703,1.945 -0.395,0.355 -0.908,0.542 -1.545,0.542 -0.602,0 -1.106,-0.226 -1.509,-0.664 -0.426,-0.462 -0.641,-1.062 -0.641,-1.78 h 1.52 c 0.033,0.282 0.133,0.488 0.305,0.622 0.125,0.097 0.273,0.154 0.438,0.154 0.159,0 0.29,-0.039 0.398,-0.103 0.132,-0.087 0.204,-0.218 0.217,-0.392 0,-0.25 -0.134,-0.448 -0.405,-0.596 C 20.27,28.93 20.092,28.85 19.839,28.754 19.443,28.61 19.134,28.469 18.925,28.34 c -0.3,-0.199 -0.518,-0.439 -0.666,-0.731 -0.165,-0.34 -0.25,-0.776 -0.25,-1.305 0,-0.645 0.178,-1.168 0.542,-1.575 0.379,-0.417 0.901,-0.628 1.561,-0.628 0.547,0 0.985,0.156 1.324,0.487 0.411,0.381 0.657,0.985 0.737,1.809 z m -8.062,-2.104 h 1.592 v 2.338 l 1.398,-2.338 h 1.842 l -1.757,2.732 1.949,4.513 h -1.894 l -1.17,-2.879 -0.369,0.583 v 2.296 h -1.591 z m -5.578,0 h 1.592 v 2.338 l 1.398,-2.338 h 1.844 l -1.758,2.732 1.949,4.513 H 10.15 l -1.168,-2.879 -0.37,0.583 v 2.296 H 7.021 Z"
         id="path207"
         style="fill:#004b92" />
      <path
         d="m 40.209,24.292 h 1.585 v 2.453 h 1.505 v -2.453 h 1.584 v 7.245 h -1.584 v -2.8 h -1.505 v 2.8 h -1.585 z m -2.182,2.771 c -0.033,-0.472 -0.159,-0.809 -0.365,-1.001 -0.138,-0.129 -0.297,-0.193 -0.484,-0.193 -0.317,0 -0.556,0.222 -0.709,0.651 -0.132,0.372 -0.2,0.856 -0.2,1.453 0,1.332 0.314,2.001 0.943,2.001 0.2,0 0.364,-0.074 0.49,-0.228 0.179,-0.203 0.292,-0.542 0.331,-1.01 h 1.528 c -0.069,0.895 -0.293,1.604 -0.678,2.139 -0.418,0.578 -0.955,0.87 -1.618,0.87 -0.797,0 -1.427,-0.337 -1.89,-1.014 -0.459,-0.667 -0.691,-1.591 -0.691,-2.758 0,-1.286 0.266,-2.283 0.803,-2.992 0.444,-0.59 0.988,-0.881 1.624,-0.881 0.592,0 1.076,0.167 1.455,0.49 0.311,0.272 0.543,0.657 0.709,1.161 0.125,0.371 0.214,0.814 0.26,1.312 z M 30.21,24.292 h 3.939 v 1.689 h -2.354 v 1.043 h 1.983 v 1.69 h -1.983 v 1.141 h 2.447 v 1.681 H 30.21 Z m -4.485,0 h 1.591 v 5.564 h 2.171 v 1.681 h -3.762 z"
         id="path209"
         style="fill:#004b92" />
      <polygon
         points="24.946,86.372 24.946,88.171 22.428,91.325 25.053,92.229 25.053,93.98 20.376,92.311 20.376,90.576 22.857,87.45 20.48,86.628 20.48,84.783 "
         id="polygon211"
         style="fill:#004b92" />
      <path
         d="m 17.195,83.432 c 0.875,0.303 1.563,0.939 2.066,1.916 0.443,0.866 0.662,1.838 0.662,2.903 0,1.151 -0.228,2.022 -0.684,2.608 -0.49,0.638 -1.169,0.807 -2.029,0.516 -0.932,-0.32 -1.634,-1.005 -2.123,-2.037 -0.405,-0.869 -0.606,-1.845 -0.606,-2.943 0,-1.101 0.223,-1.934 0.666,-2.486 0.486,-0.62 1.169,-0.78 2.048,-0.477 m 0,1.838 c -0.311,-0.104 -0.56,-0.008 -0.741,0.285 -0.182,0.303 -0.273,0.795 -0.273,1.485 0,0.696 0.091,1.257 0.273,1.683 0.178,0.434 0.43,0.695 0.756,0.819 0.359,0.114 0.625,0 0.792,-0.356 0.153,-0.303 0.223,-0.75 0.223,-1.344 0,-0.656 -0.069,-1.197 -0.226,-1.637 -0.177,-0.501 -0.443,-0.814 -0.804,-0.935 z"
         id="path213"
         style="fill:#004b92" />
      <path
         d="m 9.362,80.865 2.48,0.881 c 0.743,0.252 1.303,0.678 1.672,1.255 0.374,0.578 0.554,1.302 0.554,2.167 0,0.746 -0.147,1.277 -0.451,1.604 -0.357,0.386 -0.925,0.446 -1.692,0.188 l -0.868,-0.302 v 2.376 l -1.697,-0.6 v -7.568 h 0.002 z m 1.697,2.364 v 1.674 l 0.73,0.254 c 0.195,0.064 0.344,0.01 0.456,-0.07 0.136,-0.104 0.203,-0.312 0.203,-0.627 0,-0.248 -0.059,-0.454 -0.177,-0.613 -0.144,-0.209 -0.377,-0.324 -0.71,-0.439 z"
         id="path215"
         style="fill:#004b92" />
      <polygon
         points="40.613,81.221 41.602,79.723 40.099,80.271 39.625,81.577 "
         id="polygon217"
         style="fill:#004b92" />
      <polygon
         points="29.37,89.516 27.59,86.173 25.976,86.745 25.976,94.309 27.611,93.732 27.611,89.729 29.4,93.109 31.005,92.536 31.005,84.964 29.37,85.541 "
         id="polygon219"
         style="fill:#004b92" />
      <polygon
         points="40.958,85.42 39.18,82.078 37.567,82.646 37.567,90.213 39.203,89.639 39.203,85.635 40.992,89.012 42.595,88.438 42.595,80.867 40.958,81.445 "
         id="polygon221"
         style="fill:#004b92" />
      <path
         d="m 34.254,86.141 0.546,2.502 -1.067,0.385 z m -1.035,5.61 0.194,-1.039 1.688,-0.612 0.206,0.914 1.692,-0.6 -1.861,-6.902 -1.725,0.598 -1.843,8.224 z"
         id="path223"
         style="fill:#004b92" />
      <path
         d="M 29.279,62.625 42.678,41.217 v 5.687 l -8.136,11.687 v 1.949 l 7.991,-11.431 v 5.487 l -7.456,8.67 v 1.518 l 7.456,-8.023 v 4.252 c 0,0 -5.656,4.709 -7.487,6.305 1.189,0.711 1.009,3.809 -0.318,4.276 1.364,3.388 -0.936,4.406 -2.054,4.207 -0.662,1.444 -3.396,1.259 -3.396,0.054 l -0.032,-1.604 c 2.701,-0.44 3.031,-6.157 0.063,-6.517 z"
         id="path225"
         style="fill:#004b92" />
      <rect
         x="14.275"
         y="33.061001"
         width="23.403999"
         height="9.493"
         id="rect227"
         style="fill:#004b92" />
      <rect
         x="15.724"
         y="34.507"
         width="20.507"
         height="6.5999999"
         id="rect229"
         style="fill:#ffffff" />
      <path
         d="M 19.615,40.485 V 36.55 h -0.834 v -0.767 c 0.596,-0.038 0.966,-0.256 1.062,-0.612 h 1.019 v 5.314 z"
         id="path231"
         style="fill:#004b92" />
      <path
         d="m 23.838,36.322 c 0,-0.317 -0.075,-0.449 -0.312,-0.449 -0.235,0 -0.316,0.131 -0.316,0.449 v 0.901 c 0,0.317 0.081,0.458 0.316,0.458 0.237,0 0.312,-0.141 0.312,-0.458 z m -0.312,4.295 c -0.995,0 -1.562,-0.472 -1.562,-1.253 v -0.465 h 1.245 v 0.42 c 0,0.317 0.081,0.456 0.316,0.456 0.237,0 0.312,-0.139 0.312,-0.456 V 38.24 c -0.251,0.295 -0.531,0.413 -0.93,0.413 -0.568,0 -0.943,-0.391 -0.943,-1.112 V 36.47 c 0,-0.937 0.528,-1.418 1.562,-1.418 1.176,0 1.565,0.533 1.565,1.678 v 2.213 c 0,1.142 -0.389,1.674 -1.565,1.674 z"
         id="path233"
         style="fill:#004b92" />
      <path
         d="M 26.087,40.485 V 39.6 c 0,-0.587 0.264,-0.962 0.654,-1.456 0.68,-0.85 1.205,-1.26 1.205,-1.646 v -0.34 c 0,-0.199 -0.106,-0.285 -0.318,-0.285 -0.234,0 -0.311,0.138 -0.311,0.456 v 0.725 H 26.07 V 36.3 c 0,-0.783 0.564,-1.248 1.557,-1.248 1.069,0 1.571,0.369 1.571,1.226 0,0.907 -0.331,1.263 -0.882,1.933 -0.49,0.591 -0.873,0.988 -0.922,1.402 h 1.805 v 0.872 z"
         id="path235"
         style="fill:#004b92" />
      <path
         d="M 30.058,40.485 V 39.6 c 0,-0.587 0.265,-0.962 0.657,-1.456 0.679,-0.85 1.203,-1.26 1.203,-1.646 v -0.34 c 0,-0.199 -0.104,-0.285 -0.32,-0.285 -0.236,0 -0.306,0.138 -0.306,0.456 v 0.725 H 30.044 V 36.3 c 0,-0.783 0.559,-1.248 1.554,-1.248 1.07,0 1.573,0.369 1.573,1.226 0,0.907 -0.33,1.263 -0.884,1.933 -0.49,0.591 -0.871,0.988 -0.925,1.402 h 1.809 v 0.872 z"
         id="path237"
         style="fill:#004b92" />
      <g
         id="g254">
        <g
           id="g252">
          <defs
             id="defs240">
            <polygon
               id="polygon453"
               points="27.642,5.161 33.066,5.15 28.674,8.329 30.357,13.483 25.976,10.286 21.594,13.483 23.28,8.329 18.888,5.15 24.311,5.161 25.976,0 " />
          </defs>
          <clipPath
             id="clipPath351">
            <use
               xlink:href="#SVGID_22_"
               overflow="visible"
               id="use349"
               style="overflow:visible"
               x="0"
               y="0"
               width="100%"
               height="100%" />
          </clipPath>
          <linearGradient
             id="linearGradient357"
             gradientUnits="userSpaceOnUse"
             x1="196.3799"
             y1="-298.24371"
             x2="196.707"
             y2="-298.24371"
             gradientTransform="matrix(43.3366,0,0,-41.2158,-8491.5918,-12285.605)">
            <stop
               offset="0"
               style="stop-color:#737271"
               id="stop353" />
            <stop
               offset="1"
               style="stop-color:#EAEBEB"
               id="stop355" />
          </linearGradient>
          <rect
             x="18.888"
             clip-path="url(#SVGID_23_)"
             width="14.178"
             height="13.483"
             id="rect250"
             style="fill:url(#SVGID_24_)"
             y="0" />
        </g>
      </g>
      <polygon
         stroke-miterlimit="22.9256"
         points="27.642,5.161 33.066,5.15 28.674,8.329 30.357,13.483 25.976,10.286 21.594,13.483 23.28,8.329 18.888,5.15 24.311,5.161 25.976,0 "
         id="polygon256"
         style="fill:none;stroke:#9d9d9d;stroke-width:0.21600001;stroke-miterlimit:22.92560005" />
    </g>
  </g>
</svg>
