<?xml version="1.0" encoding="UTF-8" standalone="no"?>
<svg
   xmlns:dc="http://purl.org/dc/elements/1.1/"
   xmlns:cc="http://creativecommons.org/ns#"
   xmlns:rdf="http://www.w3.org/1999/02/22-rdf-syntax-ns#"
   xmlns:svg="http://www.w3.org/2000/svg"
   xmlns="http://www.w3.org/2000/svg"
   xmlns:sodipodi="http://sodipodi.sourceforge.net/DTD/sodipodi-0.dtd"
   xmlns:inkscape="http://www.inkscape.org/namespaces/inkscape"
   width="551.53937"
   version="1.1"
   height="677.93353"
   viewBox="0 0 441.23149 542.34683"
   id="svg2899"
   inkscape:version="0.47 r22583"
   sodipodi:docname="AC_Monza_Brianza_1912-Seite001.svg">
  <metadata
     id="metadata2978">
    <rdf:RDF>
      <cc:Work
         rdf:about="">
        <dc:format>image/svg+xml</dc:format>
        <dc:type
           rdf:resource="http://purl.org/dc/dcmitype/StillImage" />
        <dc:title></dc:title>
      </cc:Work>
    </rdf:RDF>
  </metadata>
  <sodipodi:namedview
     pagecolor="#ffffff"
     bordercolor="#666666"
     borderopacity="1"
     objecttolerance="10"
     gridtolerance="10"
     guidetolerance="10"
     inkscape:pageopacity="0"
     inkscape:pageshadow="2"
     inkscape:window-width="1152"
     inkscape:window-height="804"
     id="namedview2976"
     showgrid="false"
     inkscape:zoom="1.3819175"
     inkscape:cx="185.41577"
     inkscape:cy="22.750784"
     inkscape:window-x="-4"
     inkscape:window-y="-4"
     inkscape:window-maximized="1"
     inkscape:current-layer="svg2899" />
  <defs
     id="defs2901">
    <inkscape:perspective
       sodipodi:type="inkscape:persp3d"
       inkscape:vp_x="0 : 193.125 : 1"
       inkscape:vp_y="0 : 1000 : 0"
       inkscape:vp_z="303.75 : 193.125 : 1"
       inkscape:persp3d-origin="151.875 : 128.75 : 1"
       id="perspective2980" />
    <clipPath
       id="Clip0">
      <path
         d="m 0,0 287.594,0 0,309.987 L 0,309.987 0,0 z"
         transform="translate(-22.377,-1.24316)"
         id="path2904" />
    </clipPath>
  </defs>
  <g
     id="Hintergrund"
     transform="matrix(1.8226085,0,0,1.7614954,-0.68522394,-1.5034645)">
    <g
       id="Gruppe1"
       clip-path="url(#Clip0)">
      <path
         style="fill:#e30619;fill-rule:evenodd;stroke:none"
         d="M 140.15,305.222 C 230.915,287.54 280.299,132.704 245.282,27.1309 176.323,0 106.236,0 35.0176,27.1309 0,132.704 49.3848,287.54 140.15,305.222 z"
         transform="translate(-18.7295,-1.24316)"
         id="path2908" />
      <path
         style="fill:#ffffff;fill-rule:evenodd;stroke:none"
         d="M 41.519,0 C 33.926,12.3008 18.661,21.7569 0,27.962 0,32.0567 0,36.1526 0,40.2476 14.921,34.2966 30.056,28.8487 41.519,14.8282 41.237,9.1797 41.801,5.6495 41.519,0 z"
         transform="translate(182.679,67.1484)"
         id="path2910" />
      <path
         style="fill:#d6061a;fill-rule:evenodd;stroke:none"
         d="M 105.188,7.8828 C 96.533,5.2549 87.88,2.628 79.227,0 108.172,96.8291 88.177,237.734 0,282.586 84.147,266.121 114.813,167.828 105.188,7.8828 z"
         transform="translate(121.247,18.0029)"
         id="path2912" />
      <path
         style="fill:#ffffff;fill-rule:evenodd;stroke:none"
         d="M 105.132,4.9169 C 100.431,3.4199 94.461,1.498 89.762,0 124.106,117.045 78.917,250.411 0,283.008 83.214,262.201 141.254,139.973 105.132,4.9169 z"
         transform="translate(121.303,20.9688)"
         id="path2914" />
      <path
         style="fill:#ffffff;fill-rule:evenodd;stroke:none"
         d="M 52.904,0 C 49.231,0 45.56,0 41.888,0 64.626,63.345 46.32,150.918 0,185.031 46.626,169.672 77.525,75.106 52.904,0 z"
         transform="translate(121.726,108.244)"
         id="path2916" />
      <path
         style="fill:#ffffff;fill-rule:evenodd;stroke:none"
         d="m 0.2832,0 c 7.5928,12.3008 22.8574,21.7568 41.5186,27.9619 0,4.0947 0,8.1907 0,12.2857 C 26.8818,34.2966 11.7461,28.8486 0.2832,14.8281 0.5654,9.1797 0,5.6494 0.2832,0 z"
         transform="translate(18.2412,67.1504)"
         id="path2918" />
      <path
         style="fill:#d6061a;fill-rule:evenodd;stroke:none"
         d="M 9.62501,7.8828 C 18.2793,5.2549 26.9326,2.6279 35.5859,0 6.64161,96.8291 26.6357,237.735 114.812,282.586 30.666,266.122 0,167.828 9.62501,7.8828 z"
         transform="translate(6.66309,18.0049)"
         id="path2920" />
      <path
         style="fill:#ffffff;fill-rule:evenodd;stroke:none"
         d="M 36.1231,4.917 C 40.8233,3.4199 46.793,1.4981 51.4922,0 17.1485,117.045 62.3379,250.412 141.255,283.008 58.0411,262.201 0,139.973 36.1231,4.917 z"
         transform="translate(-19.835,20.9707)"
         id="path2922" />
      <path
         style="fill:#d6061a;fill-rule:nonzero;stroke:none"
         d="m 143.798,298.355 c 3.296,-0.679 6.564,-1.563 9.799,-2.635 80.72,-26.774 123.14,-168.147 91.545,-267.138 C 211.905,15.7774 178.406,9.37308 144.645,9.37308 110.858,9.37308 76.7911,15.7891 42.4415,28.6162 10.8663,127.604 53.2862,268.949 133.997,295.72 c 3.234,1.072 6.505,1.956 9.801,2.635 z m 12.727,6.262 c -3.834,1.271 -7.786,2.311 -11.849,3.102 l -0.879,0.171 -0.878,-0.171 c -4.064,-0.791 -8.016,-1.831 -11.85,-3.102 C 45.3204,276.174 0,126.729 34.2168,23.5703 l 0.7032,-2.1181 2.0791,-0.793 C 73.1534,6.88671 109.036,0 144.645,0 c 35.62,0 70.95,6.89257 105.986,20.6778 l 2.056,0.8085 0.69,2.084 C 287.594,126.729 242.273,276.174 156.525,304.617 z"
         transform="translate(-22.377,0.853516)"
         id="path2924" />
      <path
         style="fill:#ffffff;fill-rule:evenodd;stroke:none"
         d="M 24.6211,0 C 28.2929,0 31.9648,0 35.6367,0 12.8994,63.345 31.2051,150.918 77.5253,185.031 30.8984,169.672 0,75.106 24.6211,0 z"
         transform="translate(43.4717,108.246)"
         id="path2926" />
      <path
         style="fill:#ffffff;fill-rule:evenodd;stroke:none"
         d="m 2.6474,16.22 c 16.6232,9.676 42.1612,9.994 60.7962,0 C 44.6516,5.845 20.4596,6.162 2.6474,16.22 z M 0,16.237 c 18.0706,15.458 45.8336,15.812 66.0916,0 C 45.3486,0 19.0496,0.354 0,16.237 z"
         transform="translate(89.2764,177.696)"
         id="path2928" />
      <path
         style="fill:#ffffff;fill-rule:evenodd;stroke:none"
         d="m 2.6474,16.22 c 16.6232,9.676 42.1612,9.993 60.7962,0 C 44.6516,5.845 20.4596,6.162 2.6474,16.22 z M 0,16.237 c 18.0706,15.459 45.8336,15.812 66.0916,0 C 45.3486,0 19.0496,0.354 0,16.237 z"
         transform="translate(89.2764,186.028)"
         id="path2930" />
      <path
         style="fill:#ffffff;fill-rule:evenodd;stroke:none"
         d="m 66.9868,40.58 c 0.311,-0.506 0.862,-1.112 -2.648,-0.023 C 45.7038,50.55 20.1468,50.226 3.5234,40.55 1.8427,40.08 0,39.515 0.915,40.567 18.9858,56.026 46.7288,56.392 66.9868,40.58 z m -2.43,-24.36 c 2.712,1.044 3.187,0.818 2.648,0.017 C 46.4618,0 20.1628,0.354 1.1133,16.237 0.6191,17.261 1.5029,17.253 3.7607,16.22 21.5728,6.162 45.7648,5.845 64.5568,16.22 z"
         transform="translate(87.9512,169.576)"
         id="path2932" />
      <path
         style="fill:#ffffff;fill-rule:evenodd;stroke:none"
         d="m 6.25,0 c 3.442,0 6.248,2.808 6.248,6.249 0,3.443 -2.806,6.249 -6.248,6.249 C 2.808,12.498 0,9.692 0,6.249 0,2.808 2.808,0 6.25,0 z"
         transform="translate(115.276,120.744)"
         id="path2934" />
      <path
         style="fill:#ffffff;fill-rule:evenodd;stroke:none"
         d="m 1.275,18.218 c 12.287,0 24.574,0 36.86,0 1.406,-1.146 1.403,-2.29 -0.007,-3.437 L 23.04,14.78 23.128,0 16.598,0 16.687,14.767 C 11.546,14.768 6.404,14.769 1.263,14.77 0,15.92 0.004,17.069 1.275,18.218 z"
         transform="translate(101.667,131.336)"
         id="path2936" />
      <path
         style="fill:#ffffff;fill-rule:evenodd;stroke:none"
         d="M 3.998,144.258 C 7.045,121.638 7.028,48.192 7.117,0 5.037,0 2.959,0 0.879,0 0.651,48.086 0,121.638 3.998,144.258 z"
         transform="translate(117.514,147.435)"
         id="path2938" />
      <path
         style="fill:#ffffff;fill-rule:evenodd;stroke:none"
         d="m 12.951,0 3.792,25.4785 -6.784,0 -0.328,-4.582 -2.379,0 -0.393,4.582 -6.859,0 L 3.367,0 12.951,0 z M 9.443,16.3838 C 9.105,13.499 8.772,9.9326 8.434,5.6943 7.762,10.5664 7.343,14.1279 7.176,16.3838 l 2.267,0 z"
         transform="translate(104.746,18.9668)"
         id="path2940" />
      <path
         style="fill:#ffffff;fill-rule:evenodd;stroke:none"
         d="m 15.658,11.6465 -6.623,0 0,-4.4375 C 9.035,5.9199 8.96,5.1142 8.82,4.792 8.68,4.4746 8.369,4.3135 7.885,4.3135 c -0.548,0 -0.891,0.1933 -1.042,0.58 -0.145,0.3916 -0.22,1.2305 -0.22,2.5196 l 0,11.834 c 0,1.2412 0.075,2.0468 0.22,2.4228 0.151,0.3818 0.478,0.5693 0.993,0.5693 0.495,0 0.817,-0.1875 0.968,-0.5693 0.15,-0.376 0.231,-1.2627 0.231,-2.6592 l 0,-3.1904 6.623,0 0,0.9883 c 0,2.6318 -0.188,4.5019 -0.559,5.6025 -0.37,1.1016 -1.197,2.0684 -2.471,2.8955 -1.273,0.8272 -2.846,1.2461 -4.71,1.2461 -1.946,0 -3.546,-0.3545 -4.803,-1.0576 C 1.858,24.791 1.02,23.8183 0.612,22.5781 0.204,21.332 0,19.4619 0,16.9639 L 0,9.5244 C 0,7.6875 0.064,6.3115 0.187,5.3926 0.316,4.4746 0.687,3.5879 1.315,2.7392 1.938,1.8906 2.803,1.2187 3.91,0.7305 5.016,0.2471 6.29,0 7.724,0 c 1.955,0 3.567,0.3808 4.835,1.1328 1.268,0.7578 2.1,1.6982 2.503,2.8262 0.398,1.1279 0.596,2.8847 0.596,5.2646 l 0,2.4229 z"
         transform="translate(122.436,18.4297)"
         id="path2942" />
      <path
         style="fill:#ffffff;fill-rule:evenodd;stroke:none"
         d="M 0,0 9.3574,0 11.1905,13.6699 12.9092,0 l 9.4717,0 0,23.4063 -5.958,0 0,-17.375 -3.0362,17.375 -4.4687,0 -2.959,-17.375 0,17.375 -5.959,0 L 0,0 z"
         transform="translate(76.7158,54.6406)"
         id="path2944" />
      <path
         style="fill:#ffffff;fill-rule:evenodd;stroke:none"
         d="M 0,7.2452 C 0,4.7754 0.675,2.9502 2.025,1.7705 3.374,0.5909 5.488,0 8.365,0 c 2.877,0 4.99,0.5909 6.339,1.7705 1.349,1.1797 2.025,3.0049 2.025,5.4747 l 0,9.9003 c 0,2.4698 -0.676,4.294 -2.025,5.4747 -1.349,1.1796 -3.462,1.7695 -6.339,1.7695 -2.877,0 -4.991,-0.5899 -6.34,-1.7695 C 0.675,21.4395 0,19.6153 0,17.1455 L 0,7.2452 z m 7.028,11.6699 c 0,1.0273 0.445,1.541 1.337,1.541 0.89,0 1.337,-0.5137 1.337,-1.541 l 0,-13.4405 c 0,-1.0273 -0.447,-1.54 -1.337,-1.54 -0.892,0 -1.337,0.5127 -1.337,1.54 l 0,13.4405 z"
         transform="translate(100.777,54.1484)"
         id="path2946" />
      <path
         style="fill:#ffffff;fill-rule:evenodd;stroke:none"
         d="m 0,0 5.958,0 4.01,11.6377 0,-11.6377 6.034,0 0,23.4063 -5.958,0 L 6.072,10.3262 5.958,23.4063 0,23.4063 0,0 z"
         transform="translate(119.186,54.6406)"
         id="path2948" />
      <path
         style="fill:#ffffff;fill-rule:evenodd;stroke:none"
         d="m 12.641,0 0,4.1963 -5.346,14.6856 5.69,0 0,4.5244 -12.985,0 0,-3.7041 5.805,-15.1787 -5.156,0 0,-4.5235 11.992,0 z"
         transform="translate(136.258,54.6406)"
         id="path2950" />
      <path
         style="fill:#ffffff;fill-rule:evenodd;stroke:none"
         d="m 3.438,0 10.12,0 3.743,23.4063 -7.027,0 -0.344,-4.1309 -2.559,0 -0.344,4.1309 -7.027,0 L 3.438,0 z M 9.816,15.1446 8.593,4.1299 7.371,15.1446 l 2.445,0 z"
         transform="translate(149.663,54.6406)"
         id="path2952" />
      <path
         style="fill:#ffffff;fill-rule:evenodd;stroke:none"
         d="m 0,0 8.4023,0 c 1.6162,0 2.8125,0.1172 3.5879,0.3525 0.9053,0.2784 1.3574,0.7354 1.3574,1.3711 l 0,1.0313 c 0,0.5127 -0.3232,0.874 -0.9697,1.083 -0.6465,0.209 -1.6162,0.3135 -2.9082,0.3135 L 9.4052,4.1777 c 2.8868,0.1045 4.3301,0.7002 4.3301,1.7881 l 0,1.3057 c 0,1.3662 -1.8965,2.0498 -5.6875,2.0498 L 0,9.3213 0,0 z m 5.7529,3.6289 0.6465,0 c 0.9258,0 1.3896,-0.1914 1.3896,-0.5742 l 0,-0.9922 C 7.789,1.6797 7.3252,1.4883 6.3994,1.4883 l -0.6465,0 0,2.1406 z m 0,4.126 0.582,0 c 0.9688,0 1.4541,-0.1963 1.4541,-0.5879 l 0,-1.54 C 7.789,5.2354 7.3037,5.0391 6.3349,5.0391 l -0.582,0 0,2.7158 z"
         transform="translate(75.5264,83.25)"
         id="path2954" />
      <path
         style="fill:#ffffff;fill-rule:evenodd;stroke:none"
         d="m 0,0 6.5606,0 c 2.8652,0 4.7082,0.166 5.5262,0.4961 0.819,0.331 1.228,1.0752 1.228,2.2324 0,0.5225 -0.264,0.9121 -0.792,1.169 -0.528,0.2558 -1.427,0.415 -2.698,0.4755 1.357,0.0704 2.316,0.2305 2.875,0.4834 0.561,0.252 0.841,0.6524 0.841,1.2012 l 0,3.2637 -5.5583,0 0,-3.5381 C 7.9825,5.2441 7.4756,4.9736 6.4629,4.9736 L 5.753,5.0127 5.753,9.3213 0,9.3213 0,0 z m 5.753,3.5645 0.4521,0 c 1.1846,0 1.7774,-0.2178 1.7774,-0.6534 l 0,-0.7705 c 0,-0.4345 -0.5928,-0.6523 -1.7774,-0.6523 l -0.4521,0 0,2.0762 z"
         transform="translate(90.4902,83.25)"
         id="path2956" />
      <path
         style="fill:#ffffff;fill-rule:evenodd;stroke:none"
         d="m 0,0 5.947,0 0,9.3213 L 0,9.3213 0,0 z"
         transform="translate(105.356,83.25)"
         id="path2958" />
      <path
         style="fill:#ffffff;fill-rule:evenodd;stroke:none"
         d="m 2.909,0 8.565,0 3.167,9.3213 -5.947,0 -0.291,-1.6455 -2.165,0 L 5.947,9.3213 0,9.3213 2.909,0 z M 8.307,6.0313 7.272,1.6445 6.238,6.0313 l 2.069,0 z"
         transform="translate(112.078,83.25)"
         id="path2960" />
      <path
         style="fill:#ffffff;fill-rule:evenodd;stroke:none"
         d="m 0,0 5.043,0 3.392,4.6348 0,-4.6348 5.107,0 0,9.3213 -5.042,0 L 5.139,4.1123 5.043,9.3213 0,9.3213 0,0 z"
         transform="translate(127.591,83.25)"
         id="path2962" />
      <path
         style="fill:#ffffff;fill-rule:evenodd;stroke:none"
         d="m 10.698,0 0,1.6709 -4.524,5.8486 4.815,0 0,1.8018 L 0,9.3213 0,7.8457 4.913,1.8018 0.55,1.8018 0.55,0 10.698,0 z"
         transform="translate(142.037,83.25)"
         id="path2964" />
      <path
         style="fill:#ffffff;fill-rule:evenodd;stroke:none"
         d="m 2.909,0 8.564,0 3.167,9.3213 -5.946,0 -0.291,-1.6455 -2.165,0 L 5.947,9.3213 0,9.3213 2.909,0 z M 8.307,6.0313 7.271,1.6445 6.238,6.0313 l 2.069,0 z"
         transform="translate(153.381,83.25)"
         id="path2966" />
      <path
         style="fill:#ffffff;fill-rule:evenodd;stroke:none"
         d="M 0,2.426 C 0.9619,2.197 1.7028,1.934 2.2238,1.638 2.8218,1.288 3.4008,0.742 3.9588,0 l 1.932,0 0,14.434 -3.356,0 0,-8.652 C 2.5348,5.148 2.4468,4.71 2.2718,4.468 2.0968,4.225 1.7158,4.104 1.1309,4.104 c -0.1299,0 -0.3184,0 -0.5654,0 C 0.3184,4.118 0.1299,4.124 0,4.124 L 0,2.426 z"
         transform="translate(98.7822,238.69)"
         id="path2968" />
      <path
         style="fill:#ffffff;fill-rule:evenodd;stroke:none"
         d="M 2.808,9.906 C 0.935,9.906 0,8.639 0,6.105 L 0,4.346 C 0,1.449 1.358,0 4.076,0 6.82,0 8.192,1.523 8.192,4.569 l 0,5.802 c 0,3.113 -1.358,4.67 -4.077,4.67 -1.378,0 -2.383,-0.321 -3.014,-0.961 -0.63,-0.64 -0.946,-1.674 -0.946,-3.103 l 3.356,0 c 0,0.095 0,0.229 0,0.405 -0.013,0.162 -0.02,0.289 -0.02,0.383 0,0.809 0.228,1.213 0.683,1.213 0.442,0 0.663,-0.316 0.663,-0.95 l 0,-3.376 C 4.239,9.488 3.562,9.906 2.808,9.906 z M 3.354,6.328 c 0,0.606 0.247,0.909 0.742,0.909 0.494,0 0.741,-0.303 0.741,-0.909 l 0,-3.357 C 4.837,2.365 4.59,2.062 4.096,2.062 3.601,2.062 3.354,2.365 3.354,2.971 l 0,3.357 z"
         transform="translate(105.922,238.387)"
         id="path2970" />
      <path
         style="fill:#ffffff;fill-rule:evenodd;stroke:none"
         d="M 0,2.426 C 0.963,2.197 1.704,1.934 2.224,1.638 2.822,1.288 3.402,0.742 3.96,0 l 1.932,0 0,14.434 -3.356,0 0,-8.652 C 2.536,5.148 2.448,4.71 2.273,4.468 2.097,4.225 1.717,4.104 1.132,4.104 c -0.13,0 -0.319,0 -0.565,0 C 0.32,4.118 0.13,4.124 0,4.124 L 0,2.426 z"
         transform="translate(129.407,238.69)"
         id="path2972" />
      <path
         style="fill:#ffffff;fill-rule:evenodd;stroke:none"
         d="M 0,12.638 1.463,10.29 C 3.688,6.677 4.799,4.374 4.799,3.376 c 0,-0.633 -0.26,-0.95 -0.78,-0.95 -0.572,0 -0.858,0.552 -0.858,1.658 0,0.309 0.019,0.707 0.058,1.192 L 0,5.276 0,4.205 C 0,1.402 1.353,0 4.058,0 5.254,0 6.21,0.283 6.925,0.849 c 0.82,0.633 1.23,1.55 1.23,2.749 0,0.849 -0.274,1.873 -0.82,3.073 C 6.971,7.48 6.386,8.524 5.58,9.804 l -1.561,2.507 3.94,0 0,2.426 -7.959,0 0,-2.099 z"
         transform="translate(136.566,238.387)"
         id="path2974" />
    </g>
  </g>
</svg>
