<?xml version="1.0" encoding="UTF-8"?>
<svg version="1.0" viewBox="0 0 240.25 334.68" xmlns="http://www.w3.org/2000/svg" xmlns:cc="http://creativecommons.org/ns#" xmlns:dc="http://purl.org/dc/elements/1.1/" xmlns:rdf="http://www.w3.org/1999/02/22-rdf-syntax-ns#">
<metadata>
<rdf:RDF>
<cc:Work rdf:about="">
<dc:format>image/svg+xml</dc:format>
<dc:type rdf:resource="http://purl.org/dc/dcmitype/StillImage"/>
<dc:title/>
</cc:Work>
</rdf:RDF>
</metadata>
<g transform="translate(-24.453 -172.2)">
<g transform="matrix(.55101 0 0 .55101 -8.6489e-8 3.1039)">
<g transform="matrix(3.0198,0,0,3.0198,-366.73,-392.09)" fill="#fff">
<g transform="matrix(.5784 0 0 .5784 77.785 87.57)" fill="#ce0101" stroke-linecap="square" style="paint-order:markers fill stroke">
<path d="m349.32 374.03h-247.2v68.848h247.2v-34.424z" fill="#fff" style="paint-order:markers fill stroke"/>
<g transform="matrix(2.2983,0,0,2.2983,-322.85,-228.26)" stroke-linecap="square">
<g transform="matrix(.5784 0 0 .5784 77.785 87.561)" stroke="#000" stroke-width=".80012" style="paint-order:markers fill stroke">
<path d="m184.9 208.09v207.66c0 19.087 13.424 30.411 27.739 30.411h33.337c20.858 0 32.194 10.38 32.194 22.903 0-12.523 11.334-22.903 32.192-22.903h33.337c0.44733 0 0.8933-0.0116 1.3385-0.0335 13.802-0.68227 26.4-11.887 26.4-30.378v-207.66h-93.268z" color="#000000" color-rendering="auto" dominant-baseline="auto" fill="#ce0101" fill-rule="evenodd" image-rendering="auto" shape-rendering="auto" solid-color="#000000" stop-color="#000000" stroke="none" style="font-feature-settings:normal;font-variant-alternates:normal;font-variant-caps:normal;font-variant-east-asian:normal;font-variant-ligatures:normal;font-variant-numeric:normal;font-variant-position:normal;font-variation-settings:normal;inline-size:0;isolation:auto;mix-blend-mode:normal;paint-order:markers fill stroke;shape-margin:0;shape-padding:0;text-decoration-color:#000000;text-decoration-line:none;text-decoration-style:solid;text-indent:0;text-orientation:mixed;text-transform:none;white-space:normal"/>
<rect x="184.9" y="208.09" width="186.54" height="123.64" fill="#fee56e" stroke-width="0"/>
</g>
<path d="m184.73 207.92v120.11c0 11.04 7.7644 17.59 16.044 17.59h19.283c12.064 0 18.621 6.0039 18.621 13.247 0-7.2435 6.5559-13.247 18.62-13.247h19.283c0.25874 0 0.51669-7e-3 0.7742-0.0194 7.9829-0.39463 15.27-6.8756 15.27-17.57v-120.11h-53.947z" color="#000000" color-rendering="auto" dominant-baseline="auto" fill="none" image-rendering="auto" shape-rendering="auto" solid-color="#000000" stop-color="#000000" stroke="#544002" stroke-width=".72119" style="font-feature-settings:normal;font-variant-alternates:normal;font-variant-caps:normal;font-variant-east-asian:normal;font-variant-ligatures:normal;font-variant-numeric:normal;font-variant-position:normal;font-variation-settings:normal;inline-size:0;isolation:auto;mix-blend-mode:normal;paint-order:markers fill stroke;shape-margin:0;shape-padding:0;text-decoration-color:#000000;text-decoration-line:none;text-decoration-style:solid;text-indent:0;text-orientation:mixed;text-transform:none;white-space:normal"/>
</g>
</g>
</g>
</g>
</g>
<style type="text/css"/>
<style type="text/css"/>
<style type="text/css"/>
<style type="text/css"/>
</svg>
