<?xml version="1.0" encoding="UTF-8" standalone="no"?>
<!-- Created with Inkscape (http://www.inkscape.org/) -->

<svg
   width="83.759377mm"
   height="83.759377mm"
   viewBox="0 0 83.759377 83.759377"
   version="1.1"
   id="svg1"
   inkscape:version="1.4.2 (f4327f4, 2025-05-13)"
   sodipodi:docname="Olympique_de_Marseille_2026_logo.svg"
   xmlns:inkscape="http://www.inkscape.org/namespaces/inkscape"
   xmlns:sodipodi="http://sodipodi.sourceforge.net/DTD/sodipodi-0.dtd"
   xmlns="http://www.w3.org/2000/svg"
   xmlns:svg="http://www.w3.org/2000/svg">
  <sodipodi:namedview
     id="namedview1"
     pagecolor="#ffffff"
     bordercolor="#000000"
     borderopacity="0.25"
     inkscape:showpageshadow="2"
     inkscape:pageopacity="0.0"
     inkscape:pagecheckerboard="0"
     inkscape:deskcolor="#d1d1d1"
     inkscape:document-units="mm"
     inkscape:zoom="1.32"
     inkscape:cx="135.98485"
     inkscape:cy="145.07576"
     inkscape:window-width="1920"
     inkscape:window-height="991"
     inkscape:window-x="-9"
     inkscape:window-y="-9"
     inkscape:window-maximized="1"
     inkscape:current-layer="layer1" />
  <defs
     id="defs1" />
  <g
     inkscape:label="Layer 1"
     inkscape:groupmode="layer"
     id="layer1"
     transform="translate(-58.593151,-132.14816)">
    <g
       id="g5"
       transform="translate(0.23977576)" />
    <g
       id="g9">
      <circle
         style="font-variation-settings:normal;opacity:1;vector-effect:none;fill:#0e68ac;fill-opacity:1;fill-rule:evenodd;stroke:none;stroke-width:6.35225;stroke-linecap:butt;stroke-linejoin:miter;stroke-miterlimit:4;stroke-dasharray:none;stroke-dashoffset:0;stroke-opacity:1;-inkscape-stroke:none;stop-color:#000000;stop-opacity:1"
         id="path2"
         cx="100.47284"
         cy="174.02785"
         r="41.879688" />
      <ellipse
         style="font-variation-settings:normal;opacity:1;vector-effect:none;fill:#ffffff;fill-opacity:1;fill-rule:evenodd;stroke:none;stroke-width:6.73982;stroke-linecap:butt;stroke-linejoin:miter;stroke-miterlimit:4;stroke-dasharray:none;stroke-dashoffset:0;stroke-opacity:1;-inkscape-stroke:none;stop-color:#000000;stop-opacity:1"
         id="path3"
         cx="100.47284"
         cy="174.02785"
         rx="38.902004"
         ry="38.902" />
      <circle
         style="font-variation-settings:normal;opacity:1;vector-effect:none;fill:#0e68ac;fill-opacity:1;fill-rule:evenodd;stroke:none;stroke-width:4.92802;stroke-linecap:butt;stroke-linejoin:miter;stroke-miterlimit:4;stroke-dasharray:none;stroke-dashoffset:0;stroke-opacity:1;-inkscape-stroke:none;stop-color:#000000;stop-opacity:1"
         id="path4"
         cx="100.47284"
         cy="174.02785"
         r="35.540001" />
      <g
         id="g8">
        <path
           id="path1-8"
           style="font-variation-settings:normal;vector-effect:none;fill:#ffffff;fill-opacity:1;fill-rule:evenodd;stroke:none;stroke-width:1.71461;stroke-linecap:butt;stroke-linejoin:miter;stroke-miterlimit:4;stroke-dasharray:none;stroke-dashoffset:0;stroke-opacity:1;-inkscape-stroke:none;stop-color:#000000"
           d="m 100.18556,141.99316 a 6.833858,7.0715804 0 0 1 6.64046,7.06934 6.833858,7.0715804 0 0 1 -0.14676,1.45779 h 0.0109 l -6.50041,39.46168 -0.004,-0.0238 z"
           transform="translate(0.23977573)" />
        <path
           d="m 111.93115,160.67941 c -0.43266,1.22997 -3.63342,17.46424 -5.67844,29.98142 -1.42998,8.75264 -3.43089,15.3896 1.98342,15.34078 6.84373,0.45897 8.77177,-8.7219 8.84393,-10.56921 0.25244,-6.46215 -3.88711,-34.72867 -5.14891,-34.75299 z"
           style="opacity:1;vector-effect:none;fill:#ffffff;fill-rule:evenodd;stroke-width:1.25;stop-color:#000000;stop-opacity:1"
           id="path8"
           sodipodi:nodetypes="cscsc"
           transform="translate(0.23977573)" />
        <path
           d="m 122.858,152.16654 c -9.65234,7.8e-4 0.58846,54.04914 8.30078,33.25899 6.2914,-16.95972 -5.42986,-34.3747 -8.30078,-33.25899 z"
           style="opacity:1;vector-effect:none;fill:#ffffff;fill-rule:evenodd;stroke-width:1.25;stop-color:#000000;stop-opacity:1"
           id="path6"
           sodipodi:nodetypes="csc" />
      </g>
      <g
         id="g8-7"
         transform="matrix(-0.99999351,0,0,1,200.90428,-0.0030141)">
        <path
           id="path1-8-6"
           style="font-variation-settings:normal;vector-effect:none;fill:#ffffff;fill-opacity:1;fill-rule:evenodd;stroke:none;stroke-width:1.71461;stroke-linecap:butt;stroke-linejoin:miter;stroke-miterlimit:4;stroke-dasharray:none;stroke-dashoffset:0;stroke-opacity:1;-inkscape-stroke:none;stop-color:#000000"
           d="m 100.18556,141.99316 a 6.833858,7.0715804 0 0 1 6.64046,7.06934 6.833858,7.0715804 0 0 1 -0.14676,1.45779 h 0.0109 l -6.50041,39.46168 -0.004,-0.0238 z"
           transform="translate(0.23977573)" />
        <path
           d="m 111.93115,160.67941 c -0.43266,1.22997 -3.63342,17.46424 -5.67844,29.98142 -1.42998,8.75264 -3.43089,15.3896 1.98342,15.34078 6.84373,0.45897 8.77177,-8.7219 8.84393,-10.56921 0.25244,-6.46215 -3.88711,-34.72867 -5.14891,-34.75299 z"
           style="opacity:1;vector-effect:none;fill:#ffffff;fill-rule:evenodd;stroke-width:1.25;stop-color:#000000;stop-opacity:1"
           id="path8-3"
           sodipodi:nodetypes="cscsc"
           transform="translate(0.23977573)" />
        <path
           d="m 122.858,152.16654 c -9.65234,7.8e-4 0.58846,54.04914 8.30078,33.25899 6.2914,-16.95972 -5.42986,-34.3747 -8.30078,-33.25899 z"
           style="opacity:1;vector-effect:none;fill:#ffffff;fill-rule:evenodd;stroke-width:1.25;stop-color:#000000;stop-opacity:1"
           id="path6-6"
           sodipodi:nodetypes="csc" />
      </g>
    </g>
  </g>
</svg>
