<?xml version="1.0" encoding="UTF-8" standalone="no"?>
<svg
   xmlns:dc="http://purl.org/dc/elements/1.1/"
   xmlns:cc="http://creativecommons.org/ns#"
   xmlns:rdf="http://www.w3.org/1999/02/22-rdf-syntax-ns#"
   xmlns:svg="http://www.w3.org/2000/svg"
   xmlns="http://www.w3.org/2000/svg"
   id="svg16736"
   version="1.1"
   viewBox="0 0 59.668268 79.375002"
   height="300"
   width="225.51787">
  <defs
     id="defs16730" />
  <metadata
     id="metadata16733">
    <rdf:RDF>
      <cc:Work
         rdf:about="">
        <dc:format>image/svg+xml</dc:format>
        <dc:type
           rdf:resource="http://purl.org/dc/dcmitype/StillImage" />
        <dc:title></dc:title>
      </cc:Work>
    </rdf:RDF>
  </metadata>
  <g
     transform="translate(16.654486,-8.1683564)"
     id="layer1">
    <g
       transform="matrix(1.1813172,0,0,-1.1813172,-240.64797,1389.6954)"
       id="g16673">
      <g
         id="g2470"
         transform="translate(237.4233,1123.9227)">
        <path
           d="M 0,0 C 1.202,3.439 1.701,6.804 1.701,10.181 L 1.686,44.56 -46.813,44.552 -46.807,10.173 c 0,-3.375 0.515,-6.741 1.725,-10.18 1.212,-3.444 3.117,-6.962 5.901,-10.617 1.934,-2.551 6.047,-5.844 10.083,-7.952 0.788,-0.407 1.568,-0.774 2.321,-1.074 1.555,-0.62 3.016,-0.986 4.255,-0.986 3.603,0 9.026,3.09 12.933,6.34 0.767,0.631 1.469,1.271 2.083,1.891 0.623,0.62 1.157,1.219 1.59,1.781 l 0.002,0.003 C -3.109,-6.96 -1.199,-3.447 0,0"
           style="fill:#ffffff;fill-opacity:1;fill-rule:nonzero;stroke:none"
           id="path2472" />
      </g>
      <g
         id="g2474"
         transform="translate(239.8833,1169.2562)">
        <path
           d="m 0,0 h -0.774 l -48.499,-0.007 h -0.773 v -0.775 l 0.007,-34.378 c -0.002,-3.642 0.577,-7.058 1.767,-10.438 1.289,-3.663 3.255,-7.205 6.015,-10.83 2.049,-2.7 6.301,-6.057 10.342,-8.165 0.877,-0.458 1.661,-0.821 2.395,-1.109 1.699,-0.679 3.206,-1.03 4.473,-1.042 h 0.065 c 4.12,0 9.808,3.51 13.427,6.518 0.781,0.643 1.498,1.299 2.14,1.942 0.627,0.624 1.175,1.236 1.621,1.816 l 0.038,0.044 c 2.782,3.64 4.756,7.181 6.027,10.833 1.176,3.365 1.745,6.778 1.745,10.439 L 0,-0.774 Z m -0.774,-0.774 0.015,-34.378 c 0,-3.378 -0.499,-6.742 -1.701,-10.181 -1.199,-3.447 -3.109,-6.961 -5.914,-10.621 l -0.002,-0.004 c -0.433,-0.561 -0.967,-1.161 -1.59,-1.781 -0.614,-0.619 -1.316,-1.26 -2.083,-1.891 -3.907,-3.249 -9.33,-6.34 -12.933,-6.34 h -0.057 c -1.228,0.011 -2.667,0.374 -4.198,0.987 -0.753,0.299 -1.533,0.667 -2.321,1.077 -4.036,2.104 -8.149,5.397 -10.083,7.948 -2.784,3.656 -4.689,7.173 -5.901,10.617 -1.212,3.439 -1.725,6.805 -1.723,10.181 l -0.008,34.378 48.499,0.008"
           style="fill:#063358;fill-opacity:1;fill-rule:nonzero;stroke:none"
           id="path2476" />
      </g>
      <g
         id="g2478"
         transform="translate(191.625,1167.369)">
        <path
           d="m 0,0 0.004,-28.758 3.502,1.646 c 0,0 1.632,-1.172 3.717,-1.237 1.734,-0.06 2.716,0.467 3.183,1.03 0.136,0.138 0.254,0.391 0.259,0.391 H 10.66 c 0.059,0.141 0.095,0.3 0.095,0.459 0,0.696 -0.587,1.258 -1.299,1.256 -0.725,0 -1.307,-0.56 -1.304,-1.256 0,-0.434 0.23,-0.819 0.577,-1.04 l -0.005,-0.002 c 0,0 -0.654,-0.266 -1.341,-0.197 -0.687,0.067 -1.399,0.25 -2.474,0.871 -1.079,0.621 -1.29,0.941 -1.29,0.941 0,0 -0.446,4.049 2.134,6.351 2.616,2.34 5.547,3.032 8.765,2.898 3.206,-0.139 5.249,-1.014 7.726,-2.707 2.473,-1.699 3.738,-2.391 5.921,-2.594 2.176,-0.205 4.217,0.964 6.784,0.07 2.572,-0.895 3.077,-1.763 3.077,-1.763 0,0 -3.422,-0.737 -2.478,-4.063 0.942,-3.324 2.937,-5.319 5.592,-6.767 1.397,-0.757 3.547,-0.953 5.286,-0.974 L 46.417,0.007 Z"
           style="fill:#063358;fill-opacity:1;fill-rule:nonzero;stroke:none"
           id="path2480" />
      </g>
      <g
         id="g2482"
         transform="translate(198.8521,1114.2103)">
        <path
           d="m 0,0 c 2.963,-3.893 11.198,-9.622 16.029,-9.622 4.835,0 13.02,5.737 15.983,9.63 2.382,3.099 4.086,6.096 5.243,9.041 -0.642,-0.012 -1.352,-0.007 -2.153,0.012 -5.711,0.138 -11.283,5.982 -15.243,6.703 -2.942,0.536 -4.115,-0.595 -4.678,-1.724 -0.654,-1.301 -0.072,-2.676 -0.072,-2.676 0,0 -3.362,0.025 -6.196,4.57 -2.404,3.853 -3.399,4.885 -5.778,5.193 -2.266,0.298 -2.852,-0.28 -8.189,0.792 -0.9,0.182 -1.61,0.328 -2.169,0.448 V 17.75 C -6.816,12.005 -4.729,6.21 0,0"
           style="fill:#2f97da;fill-opacity:1;fill-rule:nonzero;stroke:none"
           id="path2484" />
      </g>
      <g
         id="g2486"
         transform="translate(237.2495,1127.0448)">
        <path
           d="m 0,0 c 0.043,0.167 0.083,0.337 0.123,0.503 -0.767,-0.01 -2.268,0.139 -4.583,1.09 -3.548,1.439 -8.767,5.756 -10.348,6.773 -2.412,1.55 -8.469,4.61 -12.774,5.055 -3.371,0.35 -3.886,0.099 -3.886,0.099 v -0.406 c 0,0 1.504,0.2 4.161,-0.551 3.511,-0.999 7.396,-3.27 11.562,-6.053 C -13.354,4.904 -7.689,1.417 -4.183,0.594 -2.083,0.097 -0.742,0 0,0"
           style="fill:#063358;fill-opacity:1;fill-rule:nonzero;stroke:none"
           id="path2488" />
      </g>
      <g
         id="g2490"
         transform="translate(197.0225,1163.9418)">
        <path
           d="M 0,0 H 2.384 L 2.382,-0.817 0.932,-0.819 0.93,-2.02 H 2.124 V -2.754 H 0.932 l 0.002,-1.35 1.569,-0.001 v -0.82 H 0.002 Z"
           style="fill:#ffffff;fill-opacity:1;fill-rule:nonzero;stroke:none"
           id="path2492" />
      </g>
      <g
         id="g2494"
         transform="translate(199.7251,1160.0038)">
        <path
           d="m 0,0 c 0.293,-0.167 0.622,-0.294 0.939,-0.296 0.248,0.002 0.582,0.096 0.582,0.545 0,0.793 -1.555,0.878 -1.557,2.427 0,0.988 0.63,1.386 1.246,1.386 0.343,0 0.695,-0.065 1.034,-0.154 V 2.977 C 1.958,3.121 1.652,3.243 1.352,3.241 1.168,3.241 0.9,3.139 0.9,2.823 0.9,2.077 2.506,1.986 2.506,0.375 2.506,-0.121 2.325,-1.11 1.082,-1.11 0.633,-1.11 0.252,-1.046 0,-0.985 Z"
           style="fill:#ffffff;fill-opacity:1;fill-rule:nonzero;stroke:none"
           id="path2496" />
      </g>
      <g
         id="g2498"
         transform="translate(205.4219,1162.9506)">
        <path
           d="m 0,0 c -0.332,0.178 -0.681,0.294 -1.036,0.294 -0.841,0 -1.11,-0.848 -1.108,-1.735 0,-1.102 0.407,-1.802 1.206,-1.8 0.332,0 0.693,0.154 0.999,0.355 v -0.9 c -0.396,-0.192 -0.823,-0.271 -1.303,-0.271 -1.135,0 -1.895,0.948 -1.895,2.583 0,1.637 0.759,2.588 1.895,2.59 0.462,0 0.865,-0.048 1.24,-0.168 z"
           style="fill:#ffffff;fill-opacity:1;fill-rule:nonzero;stroke:none"
           id="path2500" />
      </g>
      <g
         id="g2502"
         transform="translate(205.4375,1159.0184)">
        <path
           d="M 0,0 H 0.624 L 0.965,1.252 H 2.331 L 2.671,0 3.601,-0.002 2.269,4.925 h -0.93 z m 1.17,2.028 0.476,1.744 0.47,-1.744 z"
           style="fill:#ffffff;fill-opacity:1;fill-rule:nonzero;stroke:none"
           id="path2504" />
      </g>
      <g
         id="g2506"
         transform="translate(209.2671,1159.0184)">
        <path
           d="M 0,0 H 0.871 V 1.97 L 1.206,1.972 1.955,0 H 3.08 L 1.96,2.285 C 2.335,2.541 2.608,3.094 2.608,3.694 2.61,4.578 2.097,4.927 1.664,4.925 L 0,4.927 Z m 0.871,4.106 0.288,0.002 c 0.413,0 0.52,-0.225 0.524,-0.563 0,-0.358 -0.178,-0.839 -0.5,-0.839 H 0.871 Z"
           style="fill:#ffffff;fill-opacity:1;fill-rule:nonzero;stroke:none"
           id="path2508" />
      </g>
      <g
         id="g2510"
         transform="translate(212.228,1159.0184)">
        <path
           d="M 0,0 H 0.621 L 0.964,1.254 H 2.328 L 2.663,0 h 0.94 L 2.269,4.925 H 1.336 Z M 1.171,2.029 1.645,3.774 2.112,2.028 Z"
           style="fill:#ffffff;fill-opacity:1;fill-rule:nonzero;stroke:none"
           id="path2512" />
      </g>
      <g
         id="g2514"
         transform="translate(220.3726,1162.9545)">
        <path
           d="m 0,0 c -0.332,0.178 -0.678,0.294 -1.037,0.294 -0.842,-0.002 -1.108,-0.852 -1.108,-1.737 0,-1.103 0.411,-1.802 1.208,-1.802 0.333,0 0.692,0.156 0.998,0.357 l -0.003,-0.9 c -0.398,-0.19 -0.819,-0.271 -1.294,-0.271 -1.138,0.003 -1.895,0.948 -1.895,2.583 0,1.637 0.756,2.592 1.892,2.59 0.46,0 0.859,-0.05 1.238,-0.166 z"
           style="fill:#ffffff;fill-opacity:1;fill-rule:nonzero;stroke:none"
           id="path2516" />
      </g>
      <g
         id="g2518"
         transform="translate(220.3892,1159.0184)">
        <path
           d="M 0,0 0.619,0.002 0.963,1.256 H 2.33 L 2.667,0.002 h 0.94 L 2.267,4.927 1.334,4.925 Z M 1.168,2.031 1.644,3.774 2.116,2.031 Z"
           style="fill:#ffffff;fill-opacity:1;fill-rule:nonzero;stroke:none"
           id="path2520" />
      </g>
      <g
         id="g2522"
         transform="translate(224.2187,1163.9457)">
        <path
           d="m 0,0 h 0.931 v -4.104 h 1.57 v -0.821 l -2.5,-0.002 z"
           style="fill:#ffffff;fill-opacity:1;fill-rule:nonzero;stroke:none"
           id="path2524" />
      </g>
      <g
         id="g2526"
         transform="translate(229.8726,1162.9545)">
        <path
           d="m 0,0 c -0.329,0.178 -0.679,0.294 -1.036,0.294 -0.847,0 -1.109,-0.852 -1.109,-1.735 0,-1.105 0.406,-1.8 1.208,-1.8 0.333,-0.002 0.694,0.157 0.999,0.355 l -0.003,-0.9 c -0.4,-0.19 -0.821,-0.27 -1.301,-0.27 -1.135,0 -1.894,0.947 -1.894,2.582 0,1.639 0.759,2.59 1.894,2.59 0.462,0 0.857,-0.052 1.242,-0.166 z"
           style="fill:#ffffff;fill-opacity:1;fill-rule:nonzero;stroke:none"
           id="path2528" />
      </g>
      <g
         id="g2530"
         transform="translate(230.23,1163.9457)">
        <path
           d="M 0,0 0.927,0.002 0.93,-4.925 H 0 Z"
           style="fill:#ffffff;fill-opacity:1;fill-rule:nonzero;stroke:none"
           id="path2532" />
      </g>
      <g
         id="g2534"
         transform="translate(231.502,1161.4803)">
        <path
           d="m 0,0 c 0,-1.635 0.755,-2.582 1.888,-2.58 1.133,0 1.889,0.945 1.886,2.58 0,1.639 -0.753,2.592 -1.886,2.59 C 0.755,2.59 0,1.639 0,0 m 0.986,0 c 0,0.791 0.242,1.769 0.902,1.771 C 2.542,1.769 2.783,0.791 2.783,0 2.786,-0.786 2.542,-1.767 1.888,-1.769 1.231,-1.769 0.983,-0.792 0.986,0"
           style="fill:#ffffff;fill-opacity:1;fill-rule:nonzero;stroke:none"
           id="path2536" />
      </g>
      <g
         id="g2538"
         transform="translate(234.7554,1135.2269)">
        <path
           d="m 0,0 v 0.381 h 0.323 c 0.128,0 0.325,0 0.325,-0.175 C 0.646,0.034 0.545,-0.007 0.39,-0.004 Z m 0.545,-0.202 c 0.24,0.013 0.365,0.121 0.368,0.368 0,0.14 -0.035,0.277 -0.16,0.354 C 0.654,0.574 0.499,0.581 0.384,0.581 H -0.275 V -0.78 h 0.269 L 0,-0.203 0.259,-0.202 0.558,-0.778 h 0.315 z m -0.3,-1.15 c 0.694,0 1.264,0.564 1.261,1.259 0,0.689 -0.564,1.256 -1.261,1.258 -0.694,-0.002 -1.255,-0.571 -1.258,-1.258 0.003,-0.693 0.564,-1.261 1.258,-1.259 m 0,0.237 c -0.566,0.002 -1.022,0.452 -1.02,1.022 -0.002,0.565 0.454,1.021 1.02,1.021 0.564,0.002 1.024,-0.454 1.024,-1.021 0,-0.57 -0.457,-1.022 -1.024,-1.022"
           style="fill:#ffffff;fill-opacity:1;fill-rule:nonzero;stroke:none"
           id="path2540" />
      </g>
      <g
         id="g2542"
         transform="translate(209.7075,1119.5321)">
        <path
           d="M 0,0 H -0.467 V 0.663 L 0.928,0.869 V -4.177 H 0 Z"
           style="fill:#063358;fill-opacity:1;fill-rule:nonzero;stroke:none"
           id="path2544" />
      </g>
      <g
         id="g2546"
         transform="translate(213.4604,1117.6093)">
        <path
           d="m 0,0 c -0.007,-0.454 -0.144,-1.646 -0.899,-1.646 -0.303,0 -0.611,0.118 -0.892,0.3 v -0.868 c 0.339,-0.107 0.685,-0.162 1.039,-0.162 1.178,0 1.687,1.326 1.687,2.672 0,1.501 -0.529,2.496 -1.532,2.496 -1.044,0 -1.38,-1.122 -1.38,-1.761 0,-0.893 0.48,-1.536 1.11,-1.536 0.305,0 0.658,0.146 0.814,0.505 z m -0.556,2.049 c 0.35,0 0.503,-0.501 0.503,-0.931 0,-0.411 -0.169,-0.889 -0.503,-0.889 -0.356,-0.004 -0.488,0.514 -0.488,0.944 -0.003,0.454 0.129,0.88 0.488,0.876"
           style="fill:#063358;fill-opacity:1;fill-rule:nonzero;stroke:none"
           id="path2548" />
      </g>
      <g
         id="g2550"
         transform="translate(215.0923,1117.5502)">
        <path
           d="M 0,0 V 0.735 H 0.329 C 0.854,0.738 1.136,1.015 1.136,1.541 1.138,1.958 0.882,2.112 0.603,2.108 0.301,2.112 0,2.018 -0.276,1.836 v 0.766 c 0.347,0.158 0.71,0.249 1.074,0.249 0.718,0 1.269,-0.363 1.269,-1.184 0,-0.676 -0.363,-1.09 -0.793,-1.245 V 0.411 C 1.736,0.3 2.231,-0.209 2.231,-0.92 c 0,-0.529 -0.221,-1.397 -1.462,-1.397 -0.37,0 -0.735,0.039 -1.091,0.158 v 0.864 c 0.301,-0.166 0.623,-0.292 0.942,-0.292 0.3,0 0.621,0.194 0.621,0.675 C 1.234,-0.264 0.798,0 0.314,0 Z"
           style="fill:#063358;fill-opacity:1;fill-rule:nonzero;stroke:none"
           id="path2552" />
      </g>
      <g
         id="g2554"
         transform="translate(218.4722,1118.0238)">
        <path
           d="m 0,0 c 0.01,0.446 0.148,1.639 0.902,1.639 0.303,0 0.613,-0.118 0.891,-0.3 V 2.211 C 1.457,2.314 1.106,2.377 0.761,2.377 c -1.187,0 -1.685,-1.331 -1.685,-2.677 0,-1.504 0.521,-2.491 1.527,-2.491 1.038,0 1.381,1.113 1.379,1.757 0,0.892 -0.483,1.539 -1.11,1.539 C 0.566,0.505 0.217,0.355 0.062,0 Z m 0.562,-2.057 c -0.351,-0.004 -0.5,0.506 -0.499,0.928 -0.001,0.415 0.161,0.896 0.492,0.896 0.363,0 0.498,-0.517 0.498,-0.948 0,-0.45 -0.135,-0.876 -0.491,-0.876"
           style="fill:#063358;fill-opacity:1;fill-rule:nonzero;stroke:none"
           id="path2556" />
      </g>
      <g
         id="g2558"
         transform="translate(194.1499,1159.0145)">
        <path
           d="M 0,0 H 0.904 L 0.902,1.968 h 0.521 c 0.784,0 1.242,0.737 1.24,1.741 0,0.999 -0.405,1.343 -1.062,1.343 H -0.002 Z M 0.902,4.165 C 0.991,4.191 1.088,4.214 1.176,4.214 1.467,4.214 1.717,4.063 1.715,3.601 1.717,2.777 1.23,2.712 0.902,2.712 Z"
           style="fill:#ffffff;fill-opacity:1;fill-rule:nonzero;stroke:none"
           id="path2560" />
      </g>
    </g>
  </g>
</svg>
