<svg xmlns="http://www.w3.org/2000/svg" xmlns:svg="http://www.w3.org/2000/svg" version="1.1" id="svg1" width="265.22813530275766" height="377.03390662476323" viewBox="0 0 426.63907 606.66381">
  <defs id="defs1">
    <clipPath clipPathUnits="userSpaceOnUse" id="clipPath2">
      <path d="M 0,0 H 595.276 V 841.89 H 0 Z" transform="translate(-270.30531,-248.74711)" id="path2"/>
    </clipPath>
    <clipPath clipPathUnits="userSpaceOnUse" id="clipPath4">
      <path d="M 0,0 H 595.276 V 841.89 H 0 Z" transform="translate(-282.54331,-601.99892)" id="path4"/>
    </clipPath>
    <clipPath clipPathUnits="userSpaceOnUse" id="clipPath6">
      <path d="M 0,0 H 595.276 V 841.89 H 0 Z" transform="translate(-286.21191,-581.38151)" id="path6"/>
    </clipPath>
    <clipPath clipPathUnits="userSpaceOnUse" id="clipPath8">
      <path d="M 0,0 H 595.276 V 841.89 H 0 Z" transform="translate(-451.89781,-358.23711)" id="path8"/>
    </clipPath>
    <clipPath clipPathUnits="userSpaceOnUse" id="clipPath10">
      <path d="M 0,0 H 595.276 V 841.89 H 0 Z" transform="translate(-145.73751,-352.14251)" id="path10"/>
    </clipPath>
    <clipPath clipPathUnits="userSpaceOnUse" id="clipPath12">
      <path d="M 0,0 H 595.276 V 841.89 H 0 Z" transform="translate(-324.39021,-206.107)" id="path12"/>
    </clipPath>
    <clipPath clipPathUnits="userSpaceOnUse" id="clipPath14">
      <path d="M 0,0 H 595.276 V 841.89 H 0 Z" transform="translate(-268.9255,-219.79581)" id="path14"/>
    </clipPath>
    <clipPath clipPathUnits="userSpaceOnUse" id="clipPath16">
      <path d="M 0,0 H 595.276 V 841.89 H 0 Z" transform="translate(-300.56911,-210.6514)" id="path16"/>
    </clipPath>
    <clipPath clipPathUnits="userSpaceOnUse" id="clipPath18">
      <path d="M 0,0 H 595.276 V 841.89 H 0 Z" transform="translate(-280.47751,-304.71621)" id="path18"/>
    </clipPath>
    <clipPath clipPathUnits="userSpaceOnUse" id="clipPath20">
      <path d="M 0,0 H 595.276 V 841.89 H 0 Z" transform="translate(-380.97531,-494.38171)" id="path20"/>
    </clipPath>
    <clipPath clipPathUnits="userSpaceOnUse" id="clipPath22">
      <path d="M 0,0 H 595.276 V 841.89 H 0 Z" transform="translate(-311.78761,-297.52711)" id="path22"/>
    </clipPath>
    <clipPath clipPathUnits="userSpaceOnUse" id="clipPath24">
      <path d="M 0,0 H 595.276 V 841.89 H 0 Z" transform="translate(-338.54841,-294.15781)" id="path24"/>
    </clipPath>
    <clipPath clipPathUnits="userSpaceOnUse" id="clipPath26">
      <path d="M 0,0 H 595.276 V 841.89 H 0 Z" transform="translate(-387.41341,-481.69881)" id="path26"/>
    </clipPath>
    <clipPath clipPathUnits="userSpaceOnUse" id="clipPath28">
      <path d="M 0,0 H 595.276 V 841.89 H 0 Z" transform="translate(-321.98651,-391.20091)" id="path28"/>
    </clipPath>
  </defs>
  <g id="layer-MC0" transform="translate(-183.53134,-257.92814)">
    <path id="path1" d="m 0,0 c 8.398,-3.191 16.363,-7.368 23.676,-12.415 l 3.656,-2.523 3.658,2.523 c 7.31,5.046 15.275,9.223 23.673,12.414 52.331,19.908 93.509,61.465 112.977,114.018 l 1.508,4.071 -3.208,2.924 c -19.086,17.398 -30.032,42.175 -30.032,67.978 0,23.959 9.186,46.654 25.866,63.902 l 3.502,3.621 -33.562,53.631 -4.822,-1.633 c -11.572,-3.92 -23.624,-5.907 -35.822,-5.907 -21.425,0 -42.262,6.115 -60.26,17.683 l -3.481,2.238 -3.481,-2.238 c -17.998,-11.568 -38.836,-17.683 -60.26,-17.683 -12.195,0 -24.246,1.986 -35.817,5.905 l -4.821,1.633 -33.562,-53.635 3.501,-3.621 c 16.676,-17.247 25.86,-39.939 25.86,-63.896 0,-25.803 -10.946,-50.58 -30.031,-67.978 l -3.207,-2.924 1.507,-4.07 C -93.518,61.463 -52.338,19.905 0,0" style="fill:#ccad57;fill-opacity:1;fill-rule:nonzero;stroke:none" transform="matrix(1.3333333,0,0,-1.3333333,360.40707,790.8572)" clip-path="url(#clipPath2)"/>
    <path id="path3" d="M 0,0 15.091,10.964 30.182,0 24.417,17.74 39.509,28.705 H 20.855 L 15.091,46.445 9.326,28.705 H -9.327 L 5.764,17.74 Z" style="fill:#ccad57;fill-opacity:1;fill-rule:nonzero;stroke:none" transform="matrix(1.3333333,0,0,-1.3333333,376.7244,319.8548)" clip-path="url(#clipPath4)"/>
    <path id="path5" d="M 0,0 11.417,7.339 22.834,0 c 15.623,-10.044 33.735,-15.344 52.32,-15.344 11.202,0 22.233,1.931 32.62,5.665 l -3.499,5.601 C 94.962,-7.275 85.133,-8.906 75.154,-8.906 57.793,-8.906 40.903,-3.97 26.332,5.408 L 11.417,15.001 -3.476,5.408 C -18.069,-3.97 -34.958,-8.906 -52.32,-8.906 c -9.979,0 -19.808,1.631 -29.121,4.828 l -3.498,-5.601 c 10.408,-3.734 21.417,-5.665 32.619,-5.665 18.606,0 36.697,5.3 52.32,15.344" style="fill:#ccad57;fill-opacity:1;fill-rule:nonzero;stroke:none" transform="matrix(1.3333333,0,0,-1.3333333,381.61587,347.34467)" clip-path="url(#clipPath6)"/>
    <path id="path7" d="m 0,0 -0.214,-0.579 c -0.687,-1.846 -1.395,-3.692 -2.146,-5.516 -21.503,-53.393 -64.124,-95.605 -117.838,-116.529 2.318,-1.309 4.571,-2.725 6.739,-4.206 1.609,0.644 3.197,1.331 4.785,2.039 6.781,3.004 13.37,6.352 19.743,10 41.483,23.778 74.081,60.904 92.279,105.692 0.837,1.996 1.631,4.013 2.382,6.052 C 3.778,-2.103 1.867,-1.073 0,0" style="fill:#ccad57;fill-opacity:1;fill-rule:nonzero;stroke:none" transform="matrix(1.3333333,0,0,-1.3333333,602.5304,644.87053)" clip-path="url(#clipPath8)"/>
    <path id="path9" d="M 0,0 C -0.75,1.824 -1.459,3.67 -2.146,5.515 L -2.36,6.095 C -4.227,5.022 -6.137,3.992 -8.089,3.047 c 0.75,-2.038 1.544,-4.056 2.381,-6.051 18.199,-44.788 50.796,-81.914 92.279,-105.692 6.373,-3.648 12.962,-6.996 19.743,-10.001 1.589,-0.708 3.176,-1.394 4.786,-2.038 2.168,1.48 4.421,2.897 6.738,4.206 C 64.124,-95.605 21.503,-53.393 0,0" style="fill:#ccad57;fill-opacity:1;fill-rule:nonzero;stroke:none" transform="matrix(1.3333333,0,0,-1.3333333,194.31667,652.99667)" clip-path="url(#clipPath10)"/>
    <path id="path11" d="m 0,0 c -0.129,-1.159 -0.386,-2.232 -0.772,-3.155 -0.387,-0.944 -0.901,-1.738 -1.567,-2.317 -0.686,-0.622 -1.588,-0.945 -2.639,-0.945 -1.052,0 -1.954,0.323 -2.64,0.945 -0.665,0.579 -1.181,1.373 -1.523,2.339 -0.344,0.901 -0.602,1.974 -0.731,3.133 -0.128,1.159 -0.214,2.361 -0.214,3.605 0,1.245 0.086,2.468 0.214,3.649 0.129,1.202 0.387,2.317 0.731,3.262 0.342,1.008 0.858,1.824 1.501,2.446 0.708,0.665 1.61,1.009 2.662,1.009 1.051,0 1.953,-0.344 2.639,-1.009 0.666,-0.601 1.18,-1.438 1.567,-2.425 C -0.386,9.571 -0.129,8.456 0,7.254 0.129,6.073 0.215,4.85 0.215,3.605 0.215,2.361 0.129,1.159 0,0 m 5.881,9.872 c -0.451,1.974 -1.138,3.734 -2.082,5.236 -0.923,1.481 -2.124,2.683 -3.562,3.563 -1.417,0.858 -3.177,1.309 -5.215,1.309 -2.039,0 -3.778,-0.451 -5.194,-1.309 -1.437,-0.88 -2.618,-2.082 -3.54,-3.563 -0.923,-1.502 -1.632,-3.262 -2.061,-5.236 -0.429,-1.996 -0.665,-4.142 -0.665,-6.352 0,-2.211 0.236,-4.335 0.665,-6.31 0.429,-1.931 1.116,-3.67 2.061,-5.129 0.922,-1.459 2.103,-2.618 3.518,-3.476 1.417,-0.837 3.177,-1.266 5.216,-1.266 2.038,0 3.798,0.429 5.236,1.266 1.437,0.858 2.618,2.017 3.541,3.476 0.944,1.459 1.631,3.198 2.082,5.129 0.45,1.975 0.686,4.099 0.686,6.31 0,2.21 -0.236,4.356 -0.686,6.352" style="fill:#ccad57;fill-opacity:1;fill-rule:nonzero;stroke:none" transform="matrix(1.3333333,0,0,-1.3333333,432.52027,847.71067)" clip-path="url(#clipPath12)"/>
    <path id="path13" d="M 0,0 H 4.026 V -25.971 H 10.47 V 6.019 H 0 Z" style="fill:#ccad57;fill-opacity:1;fill-rule:nonzero;stroke:none" transform="matrix(1.3333333,0,0,-1.3333333,358.56733,829.45893)" clip-path="url(#clipPath14)"/>
    <path id="path15" d="m 0,0 c 1.949,2.549 2.924,4.97 2.924,7.24 0,1.147 -0.257,2.218 -0.76,3.192 -1.682,3.15 -4.692,4.713 -9.019,4.713 h -7.999 V 9.136 h 6.874 c 2.4,0 3.61,-0.889 3.61,-2.656 0,-0.985 -0.439,-2.067 -1.296,-3.245 l -10.261,-14.053 v -6.009 H 3.192 v 6.019 h -11.3 z" style="fill:#ccad57;fill-opacity:1;fill-rule:nonzero;stroke:none" transform="matrix(1.3333333,0,0,-1.3333333,400.7588,841.65147)" clip-path="url(#clipPath16)"/>
    <path id="path17" d="m 0,0 c -1.266,0.107 -2.382,-0.365 -3.198,-1.395 -0.751,-0.987 -1.159,-2.103 -1.287,-3.455 -0.043,-0.708 -0.022,-1.352 0.107,-1.931 0.128,-0.666 0.322,-1.267 0.622,-1.782 0.279,-0.515 0.665,-0.965 1.159,-1.352 0.472,-0.386 1.052,-0.6 1.717,-0.643 0.129,0 0.258,-0.022 0.365,-0.022 0.536,0 1.03,0.129 1.481,0.386 0.536,0.279 0.987,0.666 1.351,1.116 0.387,0.451 0.687,1.009 0.924,1.631 0.235,0.623 0.386,1.266 0.429,1.932 0.107,1.352 -0.129,2.532 -0.73,3.626 C 2.317,-0.73 1.33,-0.107 0,0" style="fill:#d81e25;fill-opacity:1;fill-rule:nonzero;stroke:none" transform="matrix(1.3333333,0,0,-1.3333333,373.97,716.23173)" clip-path="url(#clipPath18)"/>
    <path id="path19" d="M 0,0 0.944,13.713 -7.382,2.768 Z" style="fill:#d81e25;fill-opacity:1;fill-rule:nonzero;stroke:none" transform="matrix(1.3333333,0,0,-1.3333333,507.96707,463.3444)" clip-path="url(#clipPath20)"/>
    <path id="path21" d="M 0,0 C -0.171,1.137 -0.472,2.232 -0.901,3.241 -1.352,4.249 -1.91,5.022 -2.575,5.601 -3.304,6.223 -4.206,6.545 -5.258,6.481 -6.331,6.438 -7.21,6.052 -7.876,5.365 -8.498,4.743 -8.97,3.884 -9.292,2.854 -9.593,1.846 -9.785,0.751 -9.871,-0.408 c -0.086,-1.094 -0.086,-2.253 -0.043,-3.67 0.043,-1.158 0.15,-2.317 0.343,-3.583 0.215,-1.159 0.493,-2.189 0.88,-3.134 0.386,-0.922 0.923,-1.673 1.609,-2.253 0.665,-0.558 1.503,-0.837 2.447,-0.837 h 0.236 c 1.052,0.043 1.931,0.408 2.597,1.052 0.622,0.601 1.115,1.395 1.48,2.403 0.343,0.966 0.558,2.039 0.644,3.176 0.086,1.052 0.086,2.211 0.043,3.606 C 0.301,-2.253 0.172,-1.094 0,0" style="fill:#d81e25;fill-opacity:1;fill-rule:nonzero;stroke:none" transform="matrix(1.3333333,0,0,-1.3333333,415.7168,725.8172)" clip-path="url(#clipPath22)"/>
    <path id="path23" d="M 0,0 C -0.3,0.601 -0.643,1.116 -1.051,1.545 -1.438,1.953 -1.91,2.275 -2.511,2.554 -3.09,2.79 -3.691,2.854 -4.378,2.747 -5,2.618 -5.558,2.339 -6.051,1.91 -6.459,1.502 -6.803,1.009 -7.038,0.472 c -0.258,-0.493 -0.409,-1.094 -0.494,-1.846 -0.043,-0.708 -0.022,-1.351 0.085,-1.931 0.237,-1.309 0.795,-2.425 1.653,-3.326 0.751,-0.773 1.609,-1.159 2.618,-1.159 0.236,0 0.473,0.021 0.73,0.064 1.287,0.258 2.21,0.987 2.704,2.189 v 0.022 c 0.472,1.137 0.579,2.36 0.364,3.648 C 0.516,-1.245 0.301,-0.644 0,0" style="fill:#d81e25;fill-opacity:1;fill-rule:nonzero;stroke:none" transform="matrix(1.3333333,0,0,-1.3333333,451.39787,730.3096)" clip-path="url(#clipPath24)"/>
    <path id="path25" d="m 0,0 -6.953,2.618 0.064,4.399 -10.279,3.82 -2.833,-3.369 -6.974,2.597 21.589,26.074 6.137,-2.296 z m -57.873,-92.966 19.743,-60.689 -51.655,37.512 -51.632,-37.512 19.721,60.689 -51.633,37.534 h 63.823 l 19.721,60.69 19.723,-60.69 h 63.844 z m 36.859,-90.569 c -3.48,0 -6.302,2.821 -6.302,6.301 0,3.48 2.822,6.301 6.302,6.301 3.48,0 6.301,-2.821 6.301,-6.301 0,-3.48 -2.821,-6.301 -6.301,-6.301 m -20.983,-9.221 c -0.258,-1.416 -0.773,-2.725 -1.503,-3.906 -0.729,-1.137 -1.673,-2.124 -2.832,-2.918 -1.181,-0.794 -2.469,-1.309 -3.906,-1.567 -1.631,-0.3 -3.112,-0.171 -4.529,0.387 -1.416,0.6 -2.703,1.459 -3.819,2.575 -1.137,1.201 -2.082,2.553 -2.854,4.163 -0.795,1.631 -1.352,3.348 -1.653,5.065 -0.622,3.369 -0.794,6.288 -0.493,8.67 0.257,2.339 0.879,4.356 1.824,5.987 0.923,1.609 2.081,2.811 3.562,3.734 1.481,0.901 3.155,1.524 4.979,1.846 l 3.326,0.601 1.116,-6.138 -2.06,-0.365 c -0.772,-0.15 -1.524,-0.322 -2.404,-0.558 -0.665,-0.215 -1.33,-0.515 -1.931,-0.88 -0.601,-0.365 -1.073,-0.858 -1.438,-1.459 -0.387,-0.622 -0.601,-1.331 -0.665,-2.232 v -1.459 l 0.815,0.515 c 0.708,0.429 2.082,0.966 2.962,1.116 1.48,0.279 2.854,0.279 4.099,0 1.266,-0.279 2.403,-0.816 3.39,-1.588 1.009,-0.773 1.868,-1.781 2.533,-2.962 0.708,-1.223 1.201,-2.596 1.459,-4.12 v -0.022 c 0.3,-1.588 0.3,-3.111 0.022,-4.485 m -27.341,-1.223 c -0.343,-1.932 -0.965,-3.691 -1.845,-5.215 -0.838,-1.459 -1.996,-2.682 -3.412,-3.605 -1.395,-0.923 -3.091,-1.395 -5.151,-1.481 -1.974,-0.107 -3.777,0.258 -5.258,1.03 -1.459,0.794 -2.704,1.91 -3.691,3.305 -1.008,1.459 -1.76,3.155 -2.253,5.043 -0.537,1.996 -0.837,4.099 -0.923,6.288 -0.107,2.21 0.022,4.357 0.386,6.374 0.343,2.017 0.966,3.82 1.825,5.322 0.836,1.502 1.974,2.768 3.368,3.691 1.417,0.944 3.155,1.459 5.151,1.545 0.172,0 0.365,0.022 0.536,0.022 1.803,0 3.413,-0.387 4.743,-1.116 1.481,-0.816 2.726,-1.975 3.691,-3.391 1.009,-1.481 1.782,-3.198 2.318,-5.129 0.515,-1.996 0.837,-4.142 0.944,-6.331 0.086,-2.317 -0.042,-4.399 -0.429,-6.352 m -27.855,7.854 c -0.279,-3.369 -0.859,-6.223 -1.76,-8.498 -0.88,-2.21 -1.996,-3.991 -3.326,-5.301 -1.31,-1.309 -2.812,-2.21 -4.421,-2.661 -1.674,-0.493 -3.455,-0.665 -5.301,-0.493 l -3.348,0.279 0.516,6.202 2.103,-0.172 c 0.88,-0.064 1.695,-0.086 2.425,-0.064 0.729,0.021 1.459,0.128 2.146,0.322 0.687,0.236 1.287,0.6 1.738,1.051 0.494,0.472 0.901,1.116 1.223,1.996 0.043,0.15 0.086,0.3 0.129,0.408 l 0.322,0.965 -0.988,-0.279 c -0.836,-0.236 -2.317,-0.386 -3.176,-0.3 -1.437,0.107 -2.768,0.472 -3.927,1.073 -1.18,0.622 -2.124,1.395 -2.875,2.404 -0.752,1.008 -1.331,2.189 -1.696,3.498 -0.343,1.395 -0.472,2.832 -0.343,4.378 0.15,1.609 0.537,3.025 1.159,4.356 0.644,1.309 1.459,2.403 2.489,3.369 1.03,0.944 2.211,1.653 3.477,2.082 1.33,0.472 2.703,0.644 4.185,0.515 1.652,-0.129 3.09,-0.644 4.27,-1.567 1.223,-0.901 2.232,-2.081 3.004,-3.476 0.795,-1.395 1.374,-2.983 1.696,-4.743 0.344,-1.738 0.429,-3.498 0.279,-5.344 m -30.388,-14.936 -6.245,1.159 4.764,25.516 -3.948,0.751 1.094,5.902 10.194,-1.91 z m -30.963,17.526 c -3.48,0 -6.301,2.821 -6.301,6.301 0,3.48 2.821,6.301 6.301,6.301 3.48,0 6.301,-2.821 6.301,-6.301 0,-3.48 -2.821,-6.301 -6.301,-6.301 m -26.657,208.729 -6.374,-2.618 -2.339,5.687 18.884,7.79 2.361,-5.687 -6.374,-2.618 9.851,-23.864 -6.159,-2.553 z m 17.425,8.584 c 0.129,0.966 0.429,1.846 0.859,2.661 0.429,0.816 1.008,1.524 1.716,2.125 0.73,0.601 1.546,1.03 2.425,1.288 l 10.065,2.897 1.696,-5.923 -8.67,-2.49 c -0.666,-0.193 -1.116,-0.515 -1.353,-0.987 -0.214,-0.451 -0.235,-0.944 -0.085,-1.502 0.128,-0.451 0.429,-0.837 0.858,-1.116 0.343,-0.236 0.687,-0.429 1.052,-0.622 l 9.142,-4.056 c 1.309,-0.601 2.403,-1.331 3.219,-2.189 0.816,-0.837 1.48,-2.125 1.975,-3.863 0.3,-1.052 0.428,-2.103 0.364,-3.112 -0.086,-1.009 -0.301,-1.974 -0.708,-2.833 -0.386,-0.858 -0.923,-1.609 -1.61,-2.231 -0.687,-0.644 -1.523,-1.095 -2.51,-1.374 l -10.816,-3.112 -1.803,6.224 8.047,2.296 c 0.795,0.236 1.374,0.665 1.696,1.288 0.343,0.6 0.407,1.223 0.236,1.845 -0.172,0.58 -0.43,1.052 -0.794,1.374 -0.343,0.3 -0.709,0.536 -1.116,0.708 l -7.661,3.498 c -0.516,0.236 -1.095,0.515 -1.696,0.837 -0.579,0.322 -1.159,0.708 -1.674,1.18 -0.536,0.494 -1.03,1.073 -1.502,1.76 -0.45,0.687 -0.837,1.545 -1.137,2.575 -0.258,0.944 -0.344,1.91 -0.215,2.854 m 43.543,14.572 6.417,-20.194 0.837,-2.532 2.36,23.498 6.481,0.537 5.408,-20.237 0.58,-2.833 0.515,2.64 3.09,21.203 7.189,0.6 -5.794,-32.555 -7.361,-0.601 -5.945,20.151 -2.596,-20.837 -7.361,-0.623 -10.988,31.203 z m 41.139,1.845 6.653,-0.257 -1.18,-31.954 -6.696,0.257 z m 11.76,-25.966 8.306,-0.945 c 0.815,-0.086 1.523,0.086 2.06,0.515 0.536,0.451 0.858,0.988 0.922,1.631 0.065,0.601 0,1.138 -0.214,1.567 -0.193,0.408 -0.451,0.773 -0.751,1.094 l -5.73,6.159 c -0.386,0.43 -0.816,0.902 -1.245,1.438 -0.407,0.494 -0.794,1.095 -1.094,1.739 -0.301,0.643 -0.537,1.373 -0.709,2.189 -0.15,0.794 -0.171,1.738 -0.043,2.811 0.108,0.987 0.408,1.91 0.881,2.725 0.493,0.837 1.094,1.545 1.802,2.125 0.708,0.579 1.524,1.008 2.425,1.287 0.88,0.279 1.803,0.365 2.726,0.258 l 10.408,-1.18 -0.708,-6.117 -8.971,1.031 c -0.708,0.085 -1.244,-0.065 -1.631,-0.408 -0.365,-0.322 -0.579,-0.773 -0.643,-1.352 -0.065,-0.472 0.064,-0.923 0.343,-1.352 0.236,-0.344 0.472,-0.665 0.751,-0.987 l 6.867,-7.254 c 0.987,-1.051 1.717,-2.124 2.146,-3.24 0.429,-1.095 0.558,-2.554 0.343,-4.335 -0.128,-1.073 -0.407,-2.103 -0.879,-3.005 -0.451,-0.923 -1.03,-1.717 -1.717,-2.36 -0.687,-0.623 -1.481,-1.116 -2.36,-1.438 -0.881,-0.322 -1.825,-0.429 -2.833,-0.301 l -11.203,1.266 z m 28.328,8.476 2.918,12.962 6.503,-1.459 -2.103,-9.335 4.27,1.287 1.267,-5.257 -6.868,-2.018 -2.146,-9.549 11.353,-2.554 -1.417,-6.331 -17.855,4.013 2.747,12.254 -2.382,-0.773 -1.287,5.237 z m 55.368,-76.667 c 0,26.575 10.554,50.673 27.676,68.378 L 11.849,69.461 c -11.896,-4.029 -24.63,-6.247 -37.887,-6.247 -23.486,0 -45.351,6.885 -63.741,18.706 -18.391,-11.821 -40.256,-18.706 -63.741,-18.706 -13.256,0 -25.986,2.217 -37.882,6.245 l -28.189,-45.05 c 17.119,-17.705 27.67,-41.799 27.67,-68.371 0,-28.818 -12.391,-54.74 -32.132,-72.736 18.146,-48.996 56.552,-90.2 109.233,-110.236 9.035,-3.434 17.425,-7.876 25.044,-13.134 7.618,5.258 16.01,9.7 25.044,13.134 52.669,20.036 91.076,61.24 109.226,110.236 -19.741,17.996 -32.132,43.918 -32.132,72.736" style="fill:#d81e25;fill-opacity:1;fill-rule:nonzero;stroke:none" transform="matrix(1.3333333,0,0,-1.3333333,516.5512,480.25493)" clip-path="url(#clipPath26)"/>
    <path id="path27" d="M 0,0 15.044,-46.311 -24.358,-17.683 -63.737,-46.311 -48.694,0 l -39.4,28.628 h 48.693 l 15.043,46.311 15.044,-46.311 h 48.693 z" style="fill:#ffffff;fill-opacity:1;fill-rule:nonzero;stroke:none" transform="matrix(1.3333333,0,0,-1.3333333,429.31533,600.9188)" clip-path="url(#clipPath28)"/>
  </g>
</svg>